<?xml version="1.0" encoding="UTF-8" standalone="no"?>
<!DOCTYPE svg PUBLIC "-//W3C//DTD SVG 1.1//EN"
 "http://www.w3.org/Graphics/SVG/1.1/DTD/svg11.dtd">
<!-- Generated by graphviz version 2.40.1 (20161225.0304)
 -->
<!-- Title: dependency&#45;cruiser output Pages: 1 -->
<svg width="667pt" height="914pt"
 viewBox="0.00 0.00 667.13 914.00" xmlns="http://www.w3.org/2000/svg" xmlns:xlink="http://www.w3.org/1999/xlink">
<g id="graph0" class="graph" transform="scale(1 1) rotate(0) translate(4 910)">
<title>dependency&#45;cruiser output</title>
<polygon fill="#ffffff" stroke="transparent" points="-4,4 -4,-910 663.1318,-910 663.1318,4 -4,4"/>
<g id="clust1" class="cluster">
<title>cluster_..</title>
<path fill="#ffffff" stroke="#000000" stroke-width="2" d="M342.0759,-8C342.0759,-8 420.0759,-8 420.0759,-8 426.0759,-8 432.0759,-14 432.0759,-20 432.0759,-20 432.0759,-113 432.0759,-113 432.0759,-119 426.0759,-125 420.0759,-125 420.0759,-125 342.0759,-125 342.0759,-125 336.0759,-125 330.0759,-119 330.0759,-113 330.0759,-113 330.0759,-20 330.0759,-20 330.0759,-14 336.0759,-8 342.0759,-8"/>
<text text-anchor="middle" x="381.0759" y="-113.8" font-family="Helvetica,sans-Serif" font-weight="bold" font-size="9.00" fill="#000000">..</text>
</g>
<g id="clust2" class="cluster">
<title>cluster_../..</title>
<path fill="#ffffff" stroke="#000000" stroke-width="2" d="M350.0759,-16C350.0759,-16 412.0759,-16 412.0759,-16 418.0759,-16 424.0759,-22 424.0759,-28 424.0759,-28 424.0759,-88 424.0759,-88 424.0759,-94 418.0759,-100 412.0759,-100 412.0759,-100 350.0759,-100 350.0759,-100 344.0759,-100 338.0759,-94 338.0759,-88 338.0759,-88 338.0759,-28 338.0759,-28 338.0759,-22 344.0759,-16 350.0759,-16"/>
<text text-anchor="middle" x="381.0759" y="-88.8" font-family="Helvetica,sans-Serif" font-weight="bold" font-size="9.00" fill="#000000">..</text>
</g>
<g id="clust3" class="cluster">
<title>cluster_../../..</title>
<path fill="#ffffff" stroke="#000000" stroke-width="2" d="M358.0759,-24C358.0759,-24 404.0759,-24 404.0759,-24 410.0759,-24 416.0759,-30 416.0759,-36 416.0759,-36 416.0759,-63 416.0759,-63 416.0759,-69 410.0759,-75 404.0759,-75 404.0759,-75 358.0759,-75 358.0759,-75 352.0759,-75 346.0759,-69 346.0759,-63 346.0759,-63 346.0759,-36 346.0759,-36 346.0759,-30 352.0759,-24 358.0759,-24"/>
<text text-anchor="middle" x="381.0759" y="-63.8" font-family="Helvetica,sans-Serif" font-weight="bold" font-size="9.00" fill="#000000">..</text>
</g>
<g id="clust4" class="cluster">
<title>cluster_src</title>
<path fill="#ffffff" stroke="#000000" stroke-width="2" d="M20,-199C20,-199 639.1318,-199 639.1318,-199 645.1318,-199 651.1318,-205 651.1318,-211 651.1318,-211 651.1318,-886 651.1318,-886 651.1318,-892 645.1318,-898 639.1318,-898 639.1318,-898 20,-898 20,-898 14,-898 8,-892 8,-886 8,-886 8,-211 8,-211 8,-205 14,-199 20,-199"/>
<text text-anchor="middle" x="329.5659" y="-886.8" font-family="Helvetica,sans-Serif" font-weight="bold" font-size="9.00" fill="#000000">src</text>
</g>
<g id="clust5" class="cluster">
<title>cluster_src/news</title>
<path fill="#ffffff" stroke="#000000" stroke-width="2" d="M169.0317,-207C169.0317,-207 420.8318,-207 420.8318,-207 426.8318,-207 432.8318,-213 432.8318,-219 432.8318,-219 432.8318,-377 432.8318,-377 432.8318,-383 426.8318,-389 420.8318,-389 420.8318,-389 169.0317,-389 169.0317,-389 163.0317,-389 157.0317,-383 157.0317,-377 157.0317,-377 157.0317,-219 157.0317,-219 157.0317,-213 163.0317,-207 169.0317,-207"/>
<text text-anchor="middle" x="294.9318" y="-377.8" font-family="Helvetica,sans-Serif" font-weight="bold" font-size="9.00" fill="#000000">news</text>
</g>
<g id="clust6" class="cluster">
<title>cluster_src/news/reducers</title>
<path fill="#ffffff" stroke="#000000" stroke-width="2" d="M249.2927,-313C249.2927,-313 295.2927,-313 295.2927,-313 301.2927,-313 307.2927,-319 307.2927,-325 307.2927,-325 307.2927,-352 307.2927,-352 307.2927,-358 301.2927,-364 295.2927,-364 295.2927,-364 249.2927,-364 249.2927,-364 243.2927,-364 237.2927,-358 237.2927,-352 237.2927,-352 237.2927,-325 237.2927,-325 237.2927,-319 243.2927,-313 249.2927,-313"/>
<text text-anchor="middle" x="272.2927" y="-352.8" font-family="Helvetica,sans-Serif" font-weight="bold" font-size="9.00" fill="#000000">reducers</text>
</g>
<g id="clust7" class="cluster">
<title>cluster_src/news/screens</title>
<path fill="#ffffff" stroke="#000000" stroke-width="2" d="M249.0403,-215C249.0403,-215 295.5452,-215 295.5452,-215 301.5452,-215 307.5452,-221 307.5452,-227 307.5452,-227 307.5452,-283 307.5452,-283 307.5452,-289 301.5452,-295 295.5452,-295 295.5452,-295 249.0403,-295 249.0403,-295 243.0403,-295 237.0403,-289 237.0403,-283 237.0403,-283 237.0403,-227 237.0403,-227 237.0403,-221 243.0403,-215 249.0403,-215"/>
<text text-anchor="middle" x="272.2927" y="-283.8" font-family="Helvetica,sans-Serif" font-weight="bold" font-size="9.00" fill="#000000">screens</text>
</g>
<g id="clust8" class="cluster">
<title>cluster_src/news/views</title>
<path fill="#ffffff" stroke="#000000" stroke-width="2" d="M349.3201,-255C349.3201,-255 412.8318,-255 412.8318,-255 418.8318,-255 424.8318,-261 424.8318,-267 424.8318,-267 424.8318,-294 424.8318,-294 424.8318,-300 418.8318,-306 412.8318,-306 412.8318,-306 349.3201,-306 349.3201,-306 343.3201,-306 337.3201,-300 337.3201,-294 337.3201,-294 337.3201,-267 337.3201,-267 337.3201,-261 343.3201,-255 349.3201,-255"/>
<text text-anchor="middle" x="381.0759" y="-294.8" font-family="Helvetica,sans-Serif" font-weight="bold" font-size="9.00" fill="#000000">views</text>
</g>
<g id="clust9" class="cluster">
<title>cluster_src/schedule</title>
<path fill="#ffffff" stroke="#000000" stroke-width="2" d="M169.0317,-423C169.0317,-423 424.0903,-423 424.0903,-423 430.0903,-423 436.0903,-429 436.0903,-435 436.0903,-435 436.0903,-564 436.0903,-564 436.0903,-570 430.0903,-576 424.0903,-576 424.0903,-576 169.0317,-576 169.0317,-576 163.0317,-576 157.0317,-570 157.0317,-564 157.0317,-564 157.0317,-435 157.0317,-435 157.0317,-429 163.0317,-423 169.0317,-423"/>
<text text-anchor="middle" x="296.561" y="-564.8" font-family="Helvetica,sans-Serif" font-weight="bold" font-size="9.00" fill="#000000">schedule</text>
</g>
<g id="clust11" class="cluster">
<title>cluster_src/schedule/screens</title>
<path fill="#ffffff" stroke="#000000" stroke-width="2" d="M242.7781,-500C242.7781,-500 301.8074,-500 301.8074,-500 307.8074,-500 313.8074,-506 313.8074,-512 313.8074,-512 313.8074,-539 313.8074,-539 313.8074,-545 307.8074,-551 301.8074,-551 301.8074,-551 242.7781,-551 242.7781,-551 236.7781,-551 230.7781,-545 230.7781,-539 230.7781,-539 230.7781,-512 230.7781,-512 230.7781,-506 236.7781,-500 242.7781,-500"/>
<text text-anchor="middle" x="272.2927" y="-539.8" font-family="Helvetica,sans-Serif" font-weight="bold" font-size="9.00" fill="#000000">screens</text>
</g>
<g id="clust10" class="cluster">
<title>cluster_src/schedule/reducers</title>
<path fill="#ffffff" stroke="#000000" stroke-width="2" d="M245.7795,-441C245.7795,-441 298.8059,-441 298.8059,-441 304.8059,-441 310.8059,-447 310.8059,-453 310.8059,-453 310.8059,-480 310.8059,-480 310.8059,-486 304.8059,-492 298.8059,-492 298.8059,-492 245.7795,-492 245.7795,-492 239.7795,-492 233.7795,-486 233.7795,-480 233.7795,-480 233.7795,-453 233.7795,-453 233.7795,-447 239.7795,-441 245.7795,-441"/>
<text text-anchor="middle" x="272.2927" y="-480.8" font-family="Helvetica,sans-Serif" font-weight="bold" font-size="9.00" fill="#000000">reducers</text>
</g>
<g id="clust12" class="cluster">
<title>cluster_src/schedule/views</title>
<path fill="#ffffff" stroke="#000000" stroke-width="2" d="M346.0615,-471C346.0615,-471 416.0903,-471 416.0903,-471 422.0903,-471 428.0903,-477 428.0903,-483 428.0903,-483 428.0903,-539 428.0903,-539 428.0903,-545 422.0903,-551 416.0903,-551 416.0903,-551 346.0615,-551 346.0615,-551 340.0615,-551 334.0615,-545 334.0615,-539 334.0615,-539 334.0615,-483 334.0615,-483 334.0615,-477 340.0615,-471 346.0615,-471"/>
<text text-anchor="middle" x="381.0759" y="-539.8" font-family="Helvetica,sans-Serif" font-weight="bold" font-size="9.00" fill="#000000">views</text>
</g>
<g id="clust13" class="cluster">
<title>cluster_src/settings</title>
<path fill="#ffffff" stroke="#000000" stroke-width="2" d="M169.0317,-618C169.0317,-618 631.1318,-618 631.1318,-618 637.1318,-618 643.1318,-624 643.1318,-630 643.1318,-630 643.1318,-861 643.1318,-861 643.1318,-867 637.1318,-873 631.1318,-873 631.1318,-873 169.0317,-873 169.0317,-873 163.0317,-873 157.0317,-867 157.0317,-861 157.0317,-861 157.0317,-630 157.0317,-630 157.0317,-624 163.0317,-618 169.0317,-618"/>
<text text-anchor="middle" x="400.0818" y="-861.8" font-family="Helvetica,sans-Serif" font-weight="bold" font-size="9.00" fill="#000000">settings</text>
</g>
<g id="clust15" class="cluster">
<title>cluster_src/settings/screens</title>
<path fill="#ffffff" stroke="#000000" stroke-width="2" d="M239.0317,-695C239.0317,-695 305.5537,-695 305.5537,-695 311.5537,-695 317.5537,-701 317.5537,-707 317.5537,-707 317.5537,-792 317.5537,-792 317.5537,-798 311.5537,-804 305.5537,-804 305.5537,-804 239.0317,-804 239.0317,-804 233.0317,-804 227.0317,-798 227.0317,-792 227.0317,-792 227.0317,-707 227.0317,-707 227.0317,-701 233.0317,-695 239.0317,-695"/>
<text text-anchor="middle" x="272.2927" y="-792.8" font-family="Helvetica,sans-Serif" font-weight="bold" font-size="9.00" fill="#000000">screens</text>
</g>
<g id="clust14" class="cluster">
<title>cluster_src/settings/reducers</title>
<path fill="#ffffff" stroke="#000000" stroke-width="2" d="M248.2844,-636C248.2844,-636 296.301,-636 296.301,-636 302.301,-636 308.301,-642 308.301,-648 308.301,-648 308.301,-675 308.301,-675 308.301,-681 302.301,-687 296.301,-687 296.301,-687 248.2844,-687 248.2844,-687 242.2844,-687 236.2844,-681 236.2844,-675 236.2844,-675 236.2844,-648 236.2844,-648 236.2844,-642 242.2844,-636 248.2844,-636"/>
<text text-anchor="middle" x="272.2927" y="-675.8" font-family="Helvetica,sans-Serif" font-weight="bold" font-size="9.00" fill="#000000">reducers</text>
</g>
<g id="clust16" class="cluster">
<title>cluster_src/settings/views</title>
<path fill="#ffffff" stroke="#000000" stroke-width="2" d="M337.5537,-652C337.5537,-652 623.1318,-652 623.1318,-652 629.1318,-652 635.1318,-658 635.1318,-664 635.1318,-664 635.1318,-836 635.1318,-836 635.1318,-842 629.1318,-848 623.1318,-848 623.1318,-848 337.5537,-848 337.5537,-848 331.5537,-848 325.5537,-842 325.5537,-836 325.5537,-836 325.5537,-664 325.5537,-664 325.5537,-658 331.5537,-652 337.5537,-652"/>
<text text-anchor="middle" x="480.3428" y="-836.8" font-family="Helvetica,sans-Serif" font-weight="bold" font-size="9.00" fill="#000000">views</text>
</g>
<g id="clust17" class="cluster">
<title>cluster_src/views</title>
<path fill="#ffffff" stroke="#000000" stroke-width="2" d="M456.0903,-501C456.0903,-501 535.1235,-501 535.1235,-501 541.1235,-501 547.1235,-507 547.1235,-513 547.1235,-513 547.1235,-598 547.1235,-598 547.1235,-604 541.1235,-610 535.1235,-610 535.1235,-610 456.0903,-610 456.0903,-610 450.0903,-610 444.0903,-604 444.0903,-598 444.0903,-598 444.0903,-513 444.0903,-513 444.0903,-507 450.0903,-501 456.0903,-501"/>
<text text-anchor="middle" x="495.6069" y="-598.8" font-family="Helvetica,sans-Serif" font-weight="bold" font-size="9.00" fill="#000000">views</text>
</g>
<!-- ../../../app -->
<g id="node1" class="node">
<title>../../../app</title>
<path fill="#ffffcc" stroke="#ff0000" d="M402.4093,-49.5C402.4093,-49.5 359.7426,-49.5 359.7426,-49.5 356.9093,-49.5 354.0759,-46.6667 354.0759,-43.8333 354.0759,-43.8333 354.0759,-38.1667 354.0759,-38.1667 354.0759,-35.3333 356.9093,-32.5 359.7426,-32.5 359.7426,-32.5 402.4093,-32.5 402.4093,-32.5 405.2426,-32.5 408.0759,-35.3333 408.0759,-38.1667 408.0759,-38.1667 408.0759,-43.8333 408.0759,-43.8333 408.0759,-46.6667 405.2426,-49.5 402.4093,-49.5"/>
<text text-anchor="middle" x="381.0759" y="-38.3" font-family="Helvetica,sans-Serif" font-size="9.00" fill="#ff0000">app</text>
</g>
<!-- app.json -->
<g id="node2" class="node">
<title>app.json</title>
<g id="a_node2"><a xlink:href="app.json" xlink:title="app.json">
<path fill="#ffee44" stroke="#000000" d="M516.9403,-190.5C516.9403,-190.5 474.2736,-190.5 474.2736,-190.5 471.4403,-190.5 468.6069,-187.6667 468.6069,-184.8333 468.6069,-184.8333 468.6069,-179.1667 468.6069,-179.1667 468.6069,-176.3333 471.4403,-173.5 474.2736,-173.5 474.2736,-173.5 516.9403,-173.5 516.9403,-173.5 519.7736,-173.5 522.6069,-176.3333 522.6069,-179.1667 522.6069,-179.1667 522.6069,-184.8333 522.6069,-184.8333 522.6069,-187.6667 519.7736,-190.5 516.9403,-190.5"/>
<text text-anchor="middle" x="495.6069" y="-179.3" font-family="Helvetica,sans-Serif" font-size="9.00" fill="#000000">app.json</text>
</a>
</g>
</g>
<!-- src/App.js -->
<g id="node3" class="node">
<title>src/App.js</title>
<g id="a_node3"><a xlink:href="src/App.js" xlink:title="App.js">
<path fill="#ffffcc" stroke="#000000" d="M64.3333,-495.5C64.3333,-495.5 21.6667,-495.5 21.6667,-495.5 18.8333,-495.5 16,-492.6667 16,-489.8333 16,-489.8333 16,-484.1667 16,-484.1667 16,-481.3333 18.8333,-478.5 21.6667,-478.5 21.6667,-478.5 64.3333,-478.5 64.3333,-478.5 67.1667,-478.5 70,-481.3333 70,-484.1667 70,-484.1667 70,-489.8333 70,-489.8333 70,-492.6667 67.1667,-495.5 64.3333,-495.5"/>
<text text-anchor="middle" x="43" y="-484.3" font-family="Helvetica,sans-Serif" font-size="9.00" fill="#000000">App.js</text>
</a>
</g>
</g>
<!-- src/navigation.js -->
<g id="node5" class="node">
<title>src/navigation.js</title>
<g id="a_node5"><a xlink:href="src/navigation.js" xlink:title="navigation.js">
<path fill="#ffffcc" stroke="#000000" d="M143.3809,-506.5C143.3809,-506.5 88.6508,-506.5 88.6508,-506.5 85.8175,-506.5 82.9841,-503.6667 82.9841,-500.8333 82.9841,-500.8333 82.9841,-495.1667 82.9841,-495.1667 82.9841,-492.3333 85.8175,-489.5 88.6508,-489.5 88.6508,-489.5 143.3809,-489.5 143.3809,-489.5 146.2143,-489.5 149.0476,-492.3333 149.0476,-495.1667 149.0476,-495.1667 149.0476,-500.8333 149.0476,-500.8333 149.0476,-503.6667 146.2143,-506.5 143.3809,-506.5"/>
<text text-anchor="middle" x="116.0159" y="-495.3" font-family="Helvetica,sans-Serif" font-size="9.00" fill="#000000">navigation.js</text>
</a>
</g>
</g>
<!-- src/App.js&#45;&gt;src/navigation.js -->
<g id="edge1" class="edge">
<title>src/App.js&#45;&gt;src/navigation.js</title>
<path fill="none" stroke="#000000" stroke-width="2" stroke-opacity="0.466667" d="M70.1884,-491.096C70.9486,-491.2105 71.7147,-491.3259 72.485,-491.442"/>
<polygon fill="#000000" fill-opacity="0.466667" stroke="#000000" stroke-width="2" stroke-opacity="0.466667" points="72.2165,-494.9409 82.6264,-492.9698 73.2594,-488.0191 72.2165,-494.9409"/>
</g>
<!-- src/news/index.js -->
<g id="node7" class="node">
<title>src/news/index.js</title>
<g id="a_node7"><a xlink:href="src/news/index.js" xlink:title="index.js">
<path fill="#ffffcc" stroke="#000000" d="M213.3651,-338.5C213.3651,-338.5 170.6984,-338.5 170.6984,-338.5 167.8651,-338.5 165.0317,-335.6667 165.0317,-332.8333 165.0317,-332.8333 165.0317,-327.1667 165.0317,-327.1667 165.0317,-324.3333 167.8651,-321.5 170.6984,-321.5 170.6984,-321.5 213.3651,-321.5 213.3651,-321.5 216.1984,-321.5 219.0317,-324.3333 219.0317,-327.1667 219.0317,-327.1667 219.0317,-332.8333 219.0317,-332.8333 219.0317,-335.6667 216.1984,-338.5 213.3651,-338.5"/>
<text text-anchor="middle" x="192.0317" y="-327.3" font-family="Helvetica,sans-Serif" font-size="9.00" fill="#000000">index.js</text>
</a>
</g>
</g>
<!-- src/App.js&#45;&gt;src/news/index.js -->
<g id="edge2" class="edge">
<title>src/App.js&#45;&gt;src/news/index.js</title>
<path fill="none" stroke="#000000" stroke-width="2" stroke-opacity="0.466667" d="M51.4396,-478.1092C75.6215,-452.6343 145.422,-379.1018 176.6325,-346.2226"/>
<polygon fill="#000000" fill-opacity="0.466667" stroke="#000000" stroke-width="2" stroke-opacity="0.466667" points="179.3385,-348.4557 183.6847,-338.7933 174.2616,-343.6364 179.3385,-348.4557"/>
</g>
<!-- src/schedule/index.js -->
<g id="node13" class="node">
<title>src/schedule/index.js</title>
<g id="a_node13"><a xlink:href="src/schedule/index.js" xlink:title="index.js">
<path fill="#ffffcc" stroke="#000000" d="M213.3651,-495.5C213.3651,-495.5 170.6984,-495.5 170.6984,-495.5 167.8651,-495.5 165.0317,-492.6667 165.0317,-489.8333 165.0317,-489.8333 165.0317,-484.1667 165.0317,-484.1667 165.0317,-481.3333 167.8651,-478.5 170.6984,-478.5 170.6984,-478.5 213.3651,-478.5 213.3651,-478.5 216.1984,-478.5 219.0317,-481.3333 219.0317,-484.1667 219.0317,-484.1667 219.0317,-489.8333 219.0317,-489.8333 219.0317,-492.6667 216.1984,-495.5 213.3651,-495.5"/>
<text text-anchor="middle" x="192.0317" y="-484.3" font-family="Helvetica,sans-Serif" font-size="9.00" fill="#000000">index.js</text>
</a>
</g>
</g>
<!-- src/App.js&#45;&gt;src/schedule/index.js -->
<g id="edge3" class="edge">
<title>src/App.js&#45;&gt;src/schedule/index.js</title>
<path fill="none" stroke="#000000" stroke-width="2" stroke-opacity="0.466667" d="M70.0955,-484.6921C74.4091,-484.4042 78.8246,-484.1564 83,-484 112.3269,-482.9018 119.7021,-482.9781 149.0317,-484 150.7799,-484.0609 152.5674,-484.1357 154.3723,-484.2213"/>
<polygon fill="#000000" fill-opacity="0.466667" stroke="#000000" stroke-width="2" stroke-opacity="0.466667" points="154.5679,-487.738 164.7499,-484.8092 154.9639,-480.7492 154.5679,-487.738"/>
</g>
<!-- src/settings/index.js -->
<g id="node19" class="node">
<title>src/settings/index.js</title>
<g id="a_node19"><a xlink:href="src/settings/index.js" xlink:title="index.js">
<path fill="#ffffcc" stroke="#000000" d="M213.3651,-690.5C213.3651,-690.5 170.6984,-690.5 170.6984,-690.5 167.8651,-690.5 165.0317,-687.6667 165.0317,-684.8333 165.0317,-684.8333 165.0317,-679.1667 165.0317,-679.1667 165.0317,-676.3333 167.8651,-673.5 170.6984,-673.5 170.6984,-673.5 213.3651,-673.5 213.3651,-673.5 216.1984,-673.5 219.0317,-676.3333 219.0317,-679.1667 219.0317,-679.1667 219.0317,-684.8333 219.0317,-684.8333 219.0317,-687.6667 216.1984,-690.5 213.3651,-690.5"/>
<text text-anchor="middle" x="192.0317" y="-679.3" font-family="Helvetica,sans-Serif" font-size="9.00" fill="#000000">index.js</text>
</a>
</g>
</g>
<!-- src/App.js&#45;&gt;src/settings/index.js -->
<g id="edge4" class="edge">
<title>src/App.js&#45;&gt;src/settings/index.js</title>
<path fill="none" stroke="#000000" stroke-width="2" stroke-opacity="0.466667" d="M49.596,-495.6305C72.4865,-525.5815 148.76,-625.3812 179.2637,-665.2937"/>
<polygon fill="#000000" fill-opacity="0.466667" stroke="#000000" stroke-width="2" stroke-opacity="0.466667" points="176.6587,-667.6492 185.5119,-673.4692 182.2204,-663.3985 176.6587,-667.6492"/>
</g>
<!-- src/errors.js -->
<g id="node4" class="node">
<title>src/errors.js</title>
<g id="a_node4"><a xlink:href="src/errors.js" xlink:title="errors.js">
<path fill="#ffffcc" stroke="#000000" d="M402.4093,-414.5C402.4093,-414.5 359.7426,-414.5 359.7426,-414.5 356.9093,-414.5 354.0759,-411.6667 354.0759,-408.8333 354.0759,-408.8333 354.0759,-403.1667 354.0759,-403.1667 354.0759,-400.3333 356.9093,-397.5 359.7426,-397.5 359.7426,-397.5 402.4093,-397.5 402.4093,-397.5 405.2426,-397.5 408.0759,-400.3333 408.0759,-403.1667 408.0759,-403.1667 408.0759,-408.8333 408.0759,-408.8333 408.0759,-411.6667 405.2426,-414.5 402.4093,-414.5"/>
<text text-anchor="middle" x="381.0759" y="-403.3" font-family="Helvetica,sans-Serif" font-size="9.00" fill="#000000">errors.js</text>
</a>
</g>
</g>
<!-- src/navigation.js&#45;&gt;src/news/index.js -->
<g id="edge5" class="edge">
<title>src/navigation.js&#45;&gt;src/news/index.js</title>
<path fill="none" stroke="#000000" stroke-width="2" stroke-opacity="0.466667" d="M119.89,-489.4379C131.7308,-463.2689 167.6214,-383.9484 183.8765,-348.0236"/>
<polygon fill="#000000" fill-opacity="0.466667" stroke="#000000" stroke-width="2" stroke-opacity="0.466667" points="187.1406,-349.3 188.0742,-338.7463 180.763,-346.4142 187.1406,-349.3"/>
</g>
<!-- src/navigation.js&#45;&gt;src/schedule/index.js -->
<g id="edge6" class="edge">
<title>src/navigation.js&#45;&gt;src/schedule/index.js</title>
<path fill="none" stroke="#000000" stroke-width="2" stroke-opacity="0.466667" d="M149.1364,-493.2072C150.9518,-492.9445 152.7824,-492.6796 154.6111,-492.415"/>
<polygon fill="#000000" fill-opacity="0.466667" stroke="#000000" stroke-width="2" stroke-opacity="0.466667" points="155.5514,-495.8155 164.947,-490.9193 154.5488,-488.8876 155.5514,-495.8155"/>
</g>
<!-- src/navigation.js&#45;&gt;src/settings/index.js -->
<g id="edge7" class="edge">
<title>src/navigation.js&#45;&gt;src/settings/index.js</title>
<path fill="none" stroke="#000000" stroke-width="2" stroke-opacity="0.466667" d="M119.6823,-506.8747C131.4474,-535.3526 168.4147,-624.8338 184.4674,-663.6901"/>
<polygon fill="#000000" fill-opacity="0.466667" stroke="#000000" stroke-width="2" stroke-opacity="0.466667" points="181.349,-665.3084 188.4021,-673.2143 187.8186,-662.6356 181.349,-665.3084"/>
</g>
<!-- src/news/actions.js -->
<g id="node6" class="node">
<title>src/news/actions.js</title>
<g id="a_node6"><a xlink:href="src/news/actions.js" xlink:title="actions.js">
<path fill="#ffffcc" stroke="#000000" d="M402.4093,-331.5C402.4093,-331.5 359.7426,-331.5 359.7426,-331.5 356.9093,-331.5 354.0759,-328.6667 354.0759,-325.8333 354.0759,-325.8333 354.0759,-320.1667 354.0759,-320.1667 354.0759,-317.3333 356.9093,-314.5 359.7426,-314.5 359.7426,-314.5 402.4093,-314.5 402.4093,-314.5 405.2426,-314.5 408.0759,-317.3333 408.0759,-320.1667 408.0759,-320.1667 408.0759,-325.8333 408.0759,-325.8333 408.0759,-328.6667 405.2426,-331.5 402.4093,-331.5"/>
<text text-anchor="middle" x="381.0759" y="-320.3" font-family="Helvetica,sans-Serif" font-size="9.00" fill="#000000">actions.js</text>
</a>
</g>
</g>
<!-- src/news/actions.js&#45;&gt;app.json -->
<g id="edge8" class="edge">
<title>src/news/actions.js&#45;&gt;app.json</title>
<path fill="none" stroke="#000000" stroke-width="2" stroke-opacity="0.466667" d="M408.156,-320.9067C417.8331,-318.9981 428.2669,-315.4684 436.0903,-309 470.2321,-280.7715 485.9059,-228.5227 492.1176,-200.6522"/>
<polygon fill="#000000" fill-opacity="0.466667" stroke="#000000" stroke-width="2" stroke-opacity="0.466667" points="495.5889,-201.1466 494.1697,-190.6473 488.7317,-199.74 495.5889,-201.1466"/>
</g>
<!-- src/news/index.js&#45;&gt;src/news/actions.js -->
<g id="edge10" class="edge">
<title>src/news/index.js&#45;&gt;src/news/actions.js</title>
<path fill="none" stroke="#000000" stroke-width="2" stroke-opacity="0.466667" d="M203.6619,-321.308C210.1706,-316.9894 218.6443,-312.2274 227.0317,-310 265.9515,-299.6643 312.1647,-305.9094 343.7531,-312.85"/>
<polygon fill="#000000" fill-opacity="0.466667" stroke="#000000" stroke-width="2" stroke-opacity="0.466667" points="343.3401,-316.3474 353.8734,-315.2075 344.9282,-309.5299 343.3401,-316.3474"/>
</g>
<!-- src/news/reducers/news.js -->
<g id="node8" class="node">
<title>src/news/reducers/news.js</title>
<g id="a_node8"><a xlink:href="src/news/reducers/news.js" xlink:title="news.js">
<path fill="#ffffcc" stroke="#000000" d="M293.6261,-338.5C293.6261,-338.5 250.9594,-338.5 250.9594,-338.5 248.1261,-338.5 245.2927,-335.6667 245.2927,-332.8333 245.2927,-332.8333 245.2927,-327.1667 245.2927,-327.1667 245.2927,-324.3333 248.1261,-321.5 250.9594,-321.5 250.9594,-321.5 293.6261,-321.5 293.6261,-321.5 296.4594,-321.5 299.2927,-324.3333 299.2927,-327.1667 299.2927,-327.1667 299.2927,-332.8333 299.2927,-332.8333 299.2927,-335.6667 296.4594,-338.5 293.6261,-338.5"/>
<text text-anchor="middle" x="272.2927" y="-327.3" font-family="Helvetica,sans-Serif" font-size="9.00" fill="#000000">news.js</text>
</a>
</g>
</g>
<!-- src/news/index.js&#45;&gt;src/news/reducers/news.js -->
<g id="edge11" class="edge">
<title>src/news/index.js&#45;&gt;src/news/reducers/news.js</title>
<path fill="none" stroke="#000000" stroke-width="2" stroke-opacity="0.466667" d="M219.2044,-330C224.3036,-330 229.7154,-330 235.0584,-330"/>
<polygon fill="#000000" fill-opacity="0.466667" stroke="#000000" stroke-width="2" stroke-opacity="0.466667" points="235.148,-333.5001 245.148,-330 235.148,-326.5001 235.148,-333.5001"/>
</g>
<!-- src/news/screens/Article.jsx -->
<g id="node9" class="node">
<title>src/news/screens/Article.jsx</title>
<g id="a_node9"><a xlink:href="src/news/screens/Article.jsx" xlink:title="Article.jsx">
<path fill="#ffff77" stroke="#000000" d="M293.6332,-240.5C293.6332,-240.5 250.9523,-240.5 250.9523,-240.5 248.1189,-240.5 245.2856,-237.6667 245.2856,-234.8333 245.2856,-234.8333 245.2856,-229.1667 245.2856,-229.1667 245.2856,-226.3333 248.1189,-223.5 250.9523,-223.5 250.9523,-223.5 293.6332,-223.5 293.6332,-223.5 296.4665,-223.5 299.2998,-226.3333 299.2998,-229.1667 299.2998,-229.1667 299.2998,-234.8333 299.2998,-234.8333 299.2998,-237.6667 296.4665,-240.5 293.6332,-240.5"/>
<text text-anchor="middle" x="272.2927" y="-229.3" font-family="Helvetica,sans-Serif" font-size="9.00" fill="#000000">Article.jsx</text>
</a>
</g>
</g>
<!-- src/news/index.js&#45;&gt;src/news/screens/Article.jsx -->
<g id="edge12" class="edge">
<title>src/news/index.js&#45;&gt;src/news/screens/Article.jsx</title>
<path fill="none" stroke="#000000" stroke-width="2" stroke-opacity="0.466667" d="M193.275,-321.3759C196.1384,-304.6377 204.7482,-267.5883 227.0317,-247 229.6025,-244.6248 232.5588,-242.625 235.703,-240.9414"/>
<polygon fill="#000000" fill-opacity="0.466667" stroke="#000000" stroke-width="2" stroke-opacity="0.466667" points="237.0958,-244.1524 244.8981,-236.9847 234.3289,-237.7224 237.0958,-244.1524"/>
</g>
<!-- src/news/screens/News.jsx -->
<g id="node10" class="node">
<title>src/news/screens/News.jsx</title>
<g id="a_node10"><a xlink:href="src/news/screens/News.jsx" xlink:title="News.jsx">
<path fill="#ffff77" stroke="#000000" d="M293.6261,-269.5C293.6261,-269.5 250.9594,-269.5 250.9594,-269.5 248.1261,-269.5 245.2927,-266.6667 245.2927,-263.8333 245.2927,-263.8333 245.2927,-258.1667 245.2927,-258.1667 245.2927,-255.3333 248.1261,-252.5 250.9594,-252.5 250.9594,-252.5 293.6261,-252.5 293.6261,-252.5 296.4594,-252.5 299.2927,-255.3333 299.2927,-258.1667 299.2927,-258.1667 299.2927,-263.8333 299.2927,-263.8333 299.2927,-266.6667 296.4594,-269.5 293.6261,-269.5"/>
<text text-anchor="middle" x="272.2927" y="-258.3" font-family="Helvetica,sans-Serif" font-size="9.00" fill="#000000">News.jsx</text>
</a>
</g>
</g>
<!-- src/news/index.js&#45;&gt;src/news/screens/News.jsx -->
<g id="edge13" class="edge">
<title>src/news/index.js&#45;&gt;src/news/screens/News.jsx</title>
<path fill="none" stroke="#000000" stroke-width="2" stroke-opacity="0.466667" d="M195.0972,-321.4084C199.9438,-309.0614 210.5526,-286.4224 227.0317,-274 229.6431,-272.0315 232.5434,-270.3608 235.5786,-268.9428"/>
<polygon fill="#000000" fill-opacity="0.466667" stroke="#000000" stroke-width="2" stroke-opacity="0.466667" points="236.8209,-272.215 244.9349,-265.4023 234.3434,-265.6681 236.8209,-272.215"/>
</g>
<!-- src/views/Web.jsx -->
<g id="node35" class="node">
<title>src/views/Web.jsx</title>
<g id="a_node35"><a xlink:href="src/views/Web.jsx" xlink:title="Web.jsx">
<path fill="#ffff77" stroke="#000000" d="M516.9403,-584.5C516.9403,-584.5 474.2736,-584.5 474.2736,-584.5 471.4403,-584.5 468.6069,-581.6667 468.6069,-578.8333 468.6069,-578.8333 468.6069,-573.1667 468.6069,-573.1667 468.6069,-570.3333 471.4403,-567.5 474.2736,-567.5 474.2736,-567.5 516.9403,-567.5 516.9403,-567.5 519.7736,-567.5 522.6069,-570.3333 522.6069,-573.1667 522.6069,-573.1667 522.6069,-578.8333 522.6069,-578.8333 522.6069,-581.6667 519.7736,-584.5 516.9403,-584.5"/>
<text text-anchor="middle" x="495.6069" y="-573.3" font-family="Helvetica,sans-Serif" font-size="9.00" fill="#000000">Web.jsx</text>
</a>
</g>
</g>
<!-- src/news/index.js&#45;&gt;src/views/Web.jsx -->
<g id="edge9" class="edge">
<title>src/news/index.js&#45;&gt;src/views/Web.jsx</title>
<path fill="none" stroke="#000000" stroke-width="2" stroke-opacity="0.466667" d="M197.4988,-338.797C203.5307,-347.6346 214.1157,-360.8061 227.0317,-367 311.088,-407.3091 371.3774,-316.8993 436.0903,-384 449.8336,-398.2504 431.716,-546.546 444.0903,-562 447.8757,-566.7274 453.0851,-569.9537 458.7448,-572.137"/>
<polygon fill="#000000" fill-opacity="0.466667" stroke="#000000" stroke-width="2" stroke-opacity="0.466667" points="457.9478,-575.5489 468.5232,-574.9079 459.8562,-568.8141 457.9478,-575.5489"/>
</g>
<!-- src/news/reducers/news.js&#45;&gt;src/news/actions.js -->
<g id="edge14" class="edge">
<title>src/news/reducers/news.js&#45;&gt;src/news/actions.js</title>
<path fill="none" stroke="#000000" stroke-width="2" stroke-opacity="0.466667" d="M299.4627,-328.2517C312.8317,-327.3914 329.1568,-326.3409 343.6835,-325.4061"/>
<polygon fill="#000000" fill-opacity="0.466667" stroke="#000000" stroke-width="2" stroke-opacity="0.466667" points="344.1207,-328.8853 353.8753,-324.7503 343.6711,-321.8998 344.1207,-328.8853"/>
</g>
<!-- src/news/screens/Article.jsx&#45;&gt;app.json -->
<g id="edge15" class="edge">
<title>src/news/screens/Article.jsx&#45;&gt;app.json</title>
<path fill="none" stroke="#000000" stroke-width="2" stroke-opacity="0.466667" d="M275.2724,-223.3247C281.5361,-206.6335 297.8254,-170.4274 325.5537,-156 372.335,-131.6591 435.482,-153.2642 470.164,-169.0144"/>
<polygon fill="#000000" fill-opacity="0.466667" stroke="#000000" stroke-width="2" stroke-opacity="0.466667" points="469.023,-172.3464 479.5594,-173.4577 472.0157,-166.0184 469.023,-172.3464"/>
</g>
<!-- src/styles.js -->
<g id="node32" class="node">
<title>src/styles.js</title>
<g id="a_node32"><a xlink:href="src/styles.js" xlink:title="styles.js">
<path fill="#ffffcc" stroke="#000000" d="M612.461,-264.5C612.461,-264.5 569.7944,-264.5 569.7944,-264.5 566.961,-264.5 564.1277,-261.6667 564.1277,-258.8333 564.1277,-258.8333 564.1277,-253.1667 564.1277,-253.1667 564.1277,-250.3333 566.961,-247.5 569.7944,-247.5 569.7944,-247.5 612.461,-247.5 612.461,-247.5 615.2944,-247.5 618.1277,-250.3333 618.1277,-253.1667 618.1277,-253.1667 618.1277,-258.8333 618.1277,-258.8333 618.1277,-261.6667 615.2944,-264.5 612.461,-264.5"/>
<text text-anchor="middle" x="591.1277" y="-253.3" font-family="Helvetica,sans-Serif" font-size="9.00" fill="#000000">styles.js</text>
</a>
</g>
</g>
<!-- src/news/screens/Article.jsx&#45;&gt;src/styles.js -->
<g id="edge16" class="edge">
<title>src/news/screens/Article.jsx&#45;&gt;src/styles.js</title>
<path fill="none" stroke="#000000" stroke-width="2" stroke-opacity="0.466667" d="M299.3802,-231.5157C348.869,-231.0219 457.0969,-231.7517 547.1235,-245 549.339,-245.326 551.6053,-245.7154 553.8838,-246.1499"/>
<polygon fill="#000000" fill-opacity="0.466667" stroke="#000000" stroke-width="2" stroke-opacity="0.466667" points="553.3189,-249.6084 563.8312,-248.2885 554.7903,-242.7648 553.3189,-249.6084"/>
</g>
<!-- src/news/screens/News.jsx&#45;&gt;app.json -->
<g id="edge17" class="edge">
<title>src/news/screens/News.jsx&#45;&gt;app.json</title>
<path fill="none" stroke="#000000" stroke-width="2" stroke-opacity="0.466667" d="M299.6575,-257.8559C306.4178,-255.7857 313.015,-252.4255 317.5537,-247 336.2299,-224.6749 303.7512,-201.2837 325.5537,-182 362.7473,-149.1035 424.4692,-159.4318 462.4363,-170.3881"/>
<polygon fill="#000000" fill-opacity="0.466667" stroke="#000000" stroke-width="2" stroke-opacity="0.466667" points="461.8885,-173.8806 472.475,-173.4596 463.9366,-167.1869 461.8885,-173.8806"/>
</g>
<!-- src/news/screens/News.jsx&#45;&gt;src/errors.js -->
<g id="edge18" class="edge">
<title>src/news/screens/News.jsx&#45;&gt;src/errors.js</title>
<path fill="none" stroke="#000000" stroke-width="2" stroke-opacity="0.466667" d="M283.562,-269.8263C294.1291,-278.7645 309.4769,-293.5815 317.5537,-310 326.907,-329.0133 315.2437,-338.4881 325.5537,-357 333.33,-370.9625 346.6464,-382.9191 358.2886,-391.5255"/>
<polygon fill="#000000" fill-opacity="0.466667" stroke="#000000" stroke-width="2" stroke-opacity="0.466667" points="356.5431,-394.5755 366.7457,-397.4316 360.551,-388.8364 356.5431,-394.5755"/>
</g>
<!-- src/news/screens/News.jsx&#45;&gt;src/news/actions.js -->
<g id="edge21" class="edge">
<title>src/news/screens/News.jsx&#45;&gt;src/news/actions.js</title>
<path fill="none" stroke="#000000" stroke-width="2" stroke-opacity="0.466667" d="M299.7395,-263.965C306.3372,-265.8982 312.833,-269.0123 317.5537,-274 328.5224,-285.589 314.3971,-297.5918 325.5537,-309 330.5038,-314.0617 336.9968,-317.3906 343.7911,-319.5591"/>
<polygon fill="#000000" fill-opacity="0.466667" stroke="#000000" stroke-width="2" stroke-opacity="0.466667" points="343.2751,-323.0348 353.8165,-321.9725 344.9135,-316.2292 343.2751,-323.0348"/>
</g>
<!-- src/news/views/NewsCard.jsx -->
<g id="node11" class="node">
<title>src/news/views/NewsCard.jsx</title>
<g id="a_node11"><a xlink:href="src/news/views/NewsCard.jsx" xlink:title="NewsCard.jsx">
<path fill="#ffff77" stroke="#000000" d="M410.9226,-280.5C410.9226,-280.5 351.2292,-280.5 351.2292,-280.5 348.3959,-280.5 345.5626,-277.6667 345.5626,-274.8333 345.5626,-274.8333 345.5626,-269.1667 345.5626,-269.1667 345.5626,-266.3333 348.3959,-263.5 351.2292,-263.5 351.2292,-263.5 410.9226,-263.5 410.9226,-263.5 413.756,-263.5 416.5893,-266.3333 416.5893,-269.1667 416.5893,-269.1667 416.5893,-274.8333 416.5893,-274.8333 416.5893,-277.6667 413.756,-280.5 410.9226,-280.5"/>
<text text-anchor="middle" x="381.0759" y="-269.3" font-family="Helvetica,sans-Serif" font-size="9.00" fill="#000000">NewsCard.jsx</text>
</a>
</g>
</g>
<!-- src/news/screens/News.jsx&#45;&gt;src/news/views/NewsCard.jsx -->
<g id="edge22" class="edge">
<title>src/news/screens/News.jsx&#45;&gt;src/news/views/NewsCard.jsx</title>
<path fill="none" stroke="#000000" stroke-width="2" stroke-opacity="0.466667" d="M299.4627,-263.7474C310.279,-264.8411 323.0304,-266.1305 335.1988,-267.361"/>
<polygon fill="#000000" fill-opacity="0.466667" stroke="#000000" stroke-width="2" stroke-opacity="0.466667" points="334.9264,-270.8512 345.2278,-268.3751 335.6307,-263.8867 334.9264,-270.8512"/>
</g>
<!-- src/news/screens/News.jsx&#45;&gt;src/styles.js -->
<g id="edge19" class="edge">
<title>src/news/screens/News.jsx&#45;&gt;src/styles.js</title>
<path fill="none" stroke="#000000" stroke-width="2" stroke-opacity="0.466667" d="M299.5503,-255.4923C307.8617,-254.0569 317.0498,-252.7134 325.5537,-252 406.8025,-245.1836 502.51,-249.6916 553.9423,-253.1324"/>
<polygon fill="#000000" fill-opacity="0.466667" stroke="#000000" stroke-width="2" stroke-opacity="0.466667" points="553.7046,-256.6242 563.9227,-253.8243 554.1888,-249.641 553.7046,-256.6242"/>
</g>
<!-- src/views/Message.jsx -->
<g id="node34" class="node">
<title>src/views/Message.jsx</title>
<g id="a_node34"><a xlink:href="src/views/Message.jsx" xlink:title="Message.jsx">
<path fill="#ffff77" stroke="#000000" d="M522.9588,-526.5C522.9588,-526.5 468.255,-526.5 468.255,-526.5 465.4217,-526.5 462.5884,-523.6667 462.5884,-520.8333 462.5884,-520.8333 462.5884,-515.1667 462.5884,-515.1667 462.5884,-512.3333 465.4217,-509.5 468.255,-509.5 468.255,-509.5 522.9588,-509.5 522.9588,-509.5 525.7922,-509.5 528.6255,-512.3333 528.6255,-515.1667 528.6255,-515.1667 528.6255,-520.8333 528.6255,-520.8333 528.6255,-523.6667 525.7922,-526.5 522.9588,-526.5"/>
<text text-anchor="middle" x="495.6069" y="-515.3" font-family="Helvetica,sans-Serif" font-size="9.00" fill="#000000">Message.jsx</text>
</a>
</g>
</g>
<!-- src/news/screens/News.jsx&#45;&gt;src/views/Message.jsx -->
<g id="edge20" class="edge">
<title>src/news/screens/News.jsx&#45;&gt;src/views/Message.jsx</title>
<path fill="none" stroke="#000000" stroke-width="2" stroke-opacity="0.466667" d="M283.0273,-269.5581C293.498,-278.5113 309.0529,-293.5359 317.5537,-310 325.4719,-325.3356 312.6555,-336.5321 325.5537,-348 343.9859,-364.3881 418.9689,-340.2469 436.0903,-358 458.9547,-381.7079 422.9229,-480.7655 444.0903,-506 446.5672,-508.9528 449.6166,-511.26 452.9841,-513.0538"/>
<polygon fill="#000000" fill-opacity="0.466667" stroke="#000000" stroke-width="2" stroke-opacity="0.466667" points="451.8766,-516.3777 462.4667,-516.6942 454.3855,-509.8427 451.8766,-516.3777"/>
</g>
<!-- src/news/views/NewsCard.jsx&#45;&gt;src/styles.js -->
<g id="edge23" class="edge">
<title>src/news/views/NewsCard.jsx&#45;&gt;src/styles.js</title>
<path fill="none" stroke="#000000" stroke-width="2" stroke-opacity="0.466667" d="M416.7083,-269.2858C454.7966,-266.3846 514.9243,-261.8045 553.6915,-258.8516"/>
<polygon fill="#000000" fill-opacity="0.466667" stroke="#000000" stroke-width="2" stroke-opacity="0.466667" points="554.3181,-262.3141 564.0234,-258.0646 553.7864,-255.3343 554.3181,-262.3141"/>
</g>
<!-- src/views/HorizontalLine.jsx -->
<g id="node33" class="node">
<title>src/views/HorizontalLine.jsx</title>
<g id="a_node33"><a xlink:href="src/views/HorizontalLine.jsx" xlink:title="HorizontalLine.jsx">
<path fill="#ffff77" stroke="#000000" d="M533.4735,-555.5C533.4735,-555.5 457.7404,-555.5 457.7404,-555.5 454.9071,-555.5 452.0737,-552.6667 452.0737,-549.8333 452.0737,-549.8333 452.0737,-544.1667 452.0737,-544.1667 452.0737,-541.3333 454.9071,-538.5 457.7404,-538.5 457.7404,-538.5 533.4735,-538.5 533.4735,-538.5 536.3068,-538.5 539.1401,-541.3333 539.1401,-544.1667 539.1401,-544.1667 539.1401,-549.8333 539.1401,-549.8333 539.1401,-552.6667 536.3068,-555.5 533.4735,-555.5"/>
<text text-anchor="middle" x="495.6069" y="-544.3" font-family="Helvetica,sans-Serif" font-size="9.00" fill="#000000">HorizontalLine.jsx</text>
</a>
</g>
</g>
<!-- src/news/views/NewsCard.jsx&#45;&gt;src/views/HorizontalLine.jsx -->
<g id="edge24" class="edge">
<title>src/news/views/NewsCard.jsx&#45;&gt;src/views/HorizontalLine.jsx</title>
<path fill="none" stroke="#000000" stroke-width="2" stroke-opacity="0.466667" d="M416.8522,-273.5202C424.244,-275.5526 431.2442,-279.0742 436.0903,-285 453.5437,-306.3419 426.9947,-511.3704 444.0903,-533 444.1586,-533.0863 444.2273,-533.1722 444.2965,-533.2575"/>
<polygon fill="#000000" fill-opacity="0.466667" stroke="#000000" stroke-width="2" stroke-opacity="0.466667" points="442.0573,-535.9484 451.9096,-539.8449 446.6376,-530.6548 442.0573,-535.9484"/>
</g>
<!-- src/schedule/actions.js -->
<g id="node12" class="node">
<title>src/schedule/actions.js</title>
<g id="a_node12"><a xlink:href="src/schedule/actions.js" xlink:title="actions.js">
<path fill="#ffffcc" stroke="#000000" d="M402.4093,-455.5C402.4093,-455.5 359.7426,-455.5 359.7426,-455.5 356.9093,-455.5 354.0759,-452.6667 354.0759,-449.8333 354.0759,-449.8333 354.0759,-444.1667 354.0759,-444.1667 354.0759,-441.3333 356.9093,-438.5 359.7426,-438.5 359.7426,-438.5 402.4093,-438.5 402.4093,-438.5 405.2426,-438.5 408.0759,-441.3333 408.0759,-444.1667 408.0759,-444.1667 408.0759,-449.8333 408.0759,-449.8333 408.0759,-452.6667 405.2426,-455.5 402.4093,-455.5"/>
<text text-anchor="middle" x="381.0759" y="-444.3" font-family="Helvetica,sans-Serif" font-size="9.00" fill="#000000">actions.js</text>
</a>
</g>
</g>
<!-- src/schedule/actions.js&#45;&gt;app.json -->
<g id="edge25" class="edge">
<title>src/schedule/actions.js&#45;&gt;app.json</title>
<path fill="none" stroke="#000000" stroke-width="2" stroke-opacity="0.466667" d="M408.2804,-446.9139C418.2037,-445.511 428.7734,-442.1987 436.0903,-435 469.8025,-401.8323 488.2103,-253.3517 493.7738,-200.6385"/>
<polygon fill="#000000" fill-opacity="0.466667" stroke="#000000" stroke-width="2" stroke-opacity="0.466667" points="497.2581,-200.9689 494.792,-190.6651 490.2943,-200.2579 497.2581,-200.9689"/>
</g>
<!-- src/schedule/index.js&#45;&gt;src/schedule/actions.js -->
<g id="edge27" class="edge">
<title>src/schedule/index.js&#45;&gt;src/schedule/actions.js</title>
<path fill="none" stroke="#000000" stroke-width="2" stroke-opacity="0.466667" d="M195.1912,-478.4967C200.0279,-466.8783 210.4857,-446.5149 227.0317,-438 246.7114,-427.8725 305.1617,-434.5679 344.1354,-440.5888"/>
<polygon fill="#000000" fill-opacity="0.466667" stroke="#000000" stroke-width="2" stroke-opacity="0.466667" points="343.649,-444.0554 354.0755,-442.1743 344.7516,-437.1428 343.649,-444.0554"/>
</g>
<!-- src/schedule/reducers/schedule.js -->
<g id="node14" class="node">
<title>src/schedule/reducers/schedule.js</title>
<g id="a_node14"><a xlink:href="src/schedule/reducers/schedule.js" xlink:title="schedule.js">
<path fill="#ffffcc" stroke="#000000" d="M297.1524,-466.5C297.1524,-466.5 247.433,-466.5 247.433,-466.5 244.5997,-466.5 241.7664,-463.6667 241.7664,-460.8333 241.7664,-460.8333 241.7664,-455.1667 241.7664,-455.1667 241.7664,-452.3333 244.5997,-449.5 247.433,-449.5 247.433,-449.5 297.1524,-449.5 297.1524,-449.5 299.9858,-449.5 302.8191,-452.3333 302.8191,-455.1667 302.8191,-455.1667 302.8191,-460.8333 302.8191,-460.8333 302.8191,-463.6667 299.9858,-466.5 297.1524,-466.5"/>
<text text-anchor="middle" x="272.2927" y="-455.3" font-family="Helvetica,sans-Serif" font-size="9.00" fill="#000000">schedule.js</text>
</a>
</g>
</g>
<!-- src/schedule/index.js&#45;&gt;src/schedule/reducers/schedule.js -->
<g id="edge28" class="edge">
<title>src/schedule/index.js&#45;&gt;src/schedule/reducers/schedule.js</title>
<path fill="none" stroke="#000000" stroke-width="2" stroke-opacity="0.466667" d="M215.6786,-478.4559C222.9614,-475.8244 231.1209,-472.8763 238.9285,-470.0552"/>
<polygon fill="#000000" fill-opacity="0.466667" stroke="#000000" stroke-width="2" stroke-opacity="0.466667" points="240.322,-473.2732 248.5376,-466.5832 237.9432,-466.6898 240.322,-473.2732"/>
</g>
<!-- src/schedule/screens/Schedule.jsx -->
<g id="node15" class="node">
<title>src/schedule/screens/Schedule.jsx</title>
<g id="a_node15"><a xlink:href="src/schedule/screens/Schedule.jsx" xlink:title="Schedule.jsx">
<path fill="#ffff77" stroke="#000000" d="M300.1554,-525.5C300.1554,-525.5 244.4301,-525.5 244.4301,-525.5 241.5968,-525.5 238.7634,-522.6667 238.7634,-519.8333 238.7634,-519.8333 238.7634,-514.1667 238.7634,-514.1667 238.7634,-511.3333 241.5968,-508.5 244.4301,-508.5 244.4301,-508.5 300.1554,-508.5 300.1554,-508.5 302.9887,-508.5 305.822,-511.3333 305.822,-514.1667 305.822,-514.1667 305.822,-519.8333 305.822,-519.8333 305.822,-522.6667 302.9887,-525.5 300.1554,-525.5"/>
<text text-anchor="middle" x="272.2927" y="-514.3" font-family="Helvetica,sans-Serif" font-size="9.00" fill="#000000">Schedule.jsx</text>
</a>
</g>
</g>
<!-- src/schedule/index.js&#45;&gt;src/schedule/screens/Schedule.jsx -->
<g id="edge29" class="edge">
<title>src/schedule/index.js&#45;&gt;src/schedule/screens/Schedule.jsx</title>
<path fill="none" stroke="#000000" stroke-width="2" stroke-opacity="0.466667" d="M214.8166,-495.5166C222.6113,-498.43 231.487,-501.7476 239.8925,-504.8894"/>
<polygon fill="#000000" fill-opacity="0.466667" stroke="#000000" stroke-width="2" stroke-opacity="0.466667" points="238.8584,-508.2393 249.4509,-508.4622 241.3093,-501.6824 238.8584,-508.2393"/>
</g>
<!-- src/schedule/index.js&#45;&gt;src/views/Web.jsx -->
<g id="edge26" class="edge">
<title>src/schedule/index.js&#45;&gt;src/views/Web.jsx</title>
<path fill="none" stroke="#000000" stroke-width="2" stroke-opacity="0.466667" d="M193.8338,-495.699C197.3777,-510.4084 206.7431,-539.9614 227.0317,-554 296.7866,-602.2667 402.4582,-593.1986 458.1785,-583.7994"/>
<polygon fill="#000000" fill-opacity="0.466667" stroke="#000000" stroke-width="2" stroke-opacity="0.466667" points="459.0763,-587.1946 468.3064,-581.9933 457.8473,-580.3034 459.0763,-587.1946"/>
</g>
<!-- src/schedule/reducers/schedule.js&#45;&gt;src/schedule/actions.js -->
<g id="edge30" class="edge">
<title>src/schedule/reducers/schedule.js&#45;&gt;src/schedule/actions.js</title>
<path fill="none" stroke="#000000" stroke-width="2" stroke-opacity="0.466667" d="M302.8844,-454.9066C315.5786,-453.623 330.4272,-452.1215 343.7543,-450.7739"/>
<polygon fill="#000000" fill-opacity="0.466667" stroke="#000000" stroke-width="2" stroke-opacity="0.466667" points="344.4488,-454.2216 354.0459,-449.7332 343.7445,-447.2571 344.4488,-454.2216"/>
</g>
<!-- src/schedule/screens/Schedule.jsx&#45;&gt;app.json -->
<g id="edge31" class="edge">
<title>src/schedule/screens/Schedule.jsx&#45;&gt;app.json</title>
<path fill="none" stroke="#000000" stroke-width="2" stroke-opacity="0.466667" d="M301.661,-508.4163C307.902,-505.2103 313.7489,-500.8631 317.5537,-495 332.2595,-472.3388 310.7224,-274.5793 325.5537,-252 354.7389,-207.5684 417.8981,-191.322 458.4906,-185.3929"/>
<polygon fill="#000000" fill-opacity="0.466667" stroke="#000000" stroke-width="2" stroke-opacity="0.466667" points="459.0845,-188.845 468.5409,-184.0673 458.1691,-181.9051 459.0845,-188.845"/>
</g>
<!-- src/schedule/screens/Schedule.jsx&#45;&gt;src/errors.js -->
<g id="edge32" class="edge">
<title>src/schedule/screens/Schedule.jsx&#45;&gt;src/errors.js</title>
<path fill="none" stroke="#000000" stroke-width="2" stroke-opacity="0.466667" d="M300.8904,-508.4508C307.3124,-505.2268 313.436,-500.8627 317.5537,-495 336.821,-467.5678 303.5751,-445.3119 325.5537,-420 330.2831,-414.5533 336.7922,-411.0696 343.6922,-408.8735"/>
<polygon fill="#000000" fill-opacity="0.466667" stroke="#000000" stroke-width="2" stroke-opacity="0.466667" points="344.9701,-412.17 353.9193,-406.4988 343.3868,-405.3514 344.9701,-412.17"/>
</g>
<!-- src/schedule/screens/Schedule.jsx&#45;&gt;src/schedule/actions.js -->
<g id="edge34" class="edge">
<title>src/schedule/screens/Schedule.jsx&#45;&gt;src/schedule/actions.js</title>
<path fill="none" stroke="#000000" stroke-width="2" stroke-opacity="0.466667" d="M299.2339,-508.3624C305.9926,-505.0946 312.6948,-500.7313 317.5537,-495 325.6472,-485.4534 317.0351,-477.1693 325.5537,-468 330.6655,-462.4978 337.3662,-458.4264 344.337,-455.4172"/>
<polygon fill="#000000" fill-opacity="0.466667" stroke="#000000" stroke-width="2" stroke-opacity="0.466667" points="345.689,-458.6497 353.8862,-451.9373 343.2923,-452.0728 345.689,-458.6497"/>
</g>
<!-- src/schedule/views/LessonCard.jsx -->
<g id="node16" class="node">
<title>src/schedule/views/LessonCard.jsx</title>
<g id="a_node16"><a xlink:href="src/schedule/views/LessonCard.jsx" xlink:title="LessonCard.jsx">
<path fill="#ffff77" stroke="#000000" d="M414.4381,-525.5C414.4381,-525.5 347.7138,-525.5 347.7138,-525.5 344.8804,-525.5 342.0471,-522.6667 342.0471,-519.8333 342.0471,-519.8333 342.0471,-514.1667 342.0471,-514.1667 342.0471,-511.3333 344.8804,-508.5 347.7138,-508.5 347.7138,-508.5 414.4381,-508.5 414.4381,-508.5 417.2714,-508.5 420.1047,-511.3333 420.1047,-514.1667 420.1047,-514.1667 420.1047,-519.8333 420.1047,-519.8333 420.1047,-522.6667 417.2714,-525.5 414.4381,-525.5"/>
<text text-anchor="middle" x="381.0759" y="-514.3" font-family="Helvetica,sans-Serif" font-size="9.00" fill="#000000">LessonCard.jsx</text>
</a>
</g>
</g>
<!-- src/schedule/screens/Schedule.jsx&#45;&gt;src/schedule/views/LessonCard.jsx -->
<g id="edge35" class="edge">
<title>src/schedule/screens/Schedule.jsx&#45;&gt;src/schedule/views/LessonCard.jsx</title>
<path fill="none" stroke="#000000" stroke-width="2" stroke-opacity="0.466667" d="M305.8189,-517C313.9853,-517 322.8913,-517 331.6259,-517"/>
<polygon fill="#000000" fill-opacity="0.466667" stroke="#000000" stroke-width="2" stroke-opacity="0.466667" points="331.7463,-520.5001 341.7462,-517 331.7462,-513.5001 331.7463,-520.5001"/>
</g>
<!-- src/schedule/views/Timetable.jsx -->
<g id="node17" class="node">
<title>src/schedule/views/Timetable.jsx</title>
<g id="a_node17"><a xlink:href="src/schedule/views/Timetable.jsx" xlink:title="Timetable.jsx">
<path fill="#ffff77" stroke="#000000" d="M409.596,-496.5C409.596,-496.5 352.5558,-496.5 352.5558,-496.5 349.7225,-496.5 346.8892,-493.6667 346.8892,-490.8333 346.8892,-490.8333 346.8892,-485.1667 346.8892,-485.1667 346.8892,-482.3333 349.7225,-479.5 352.5558,-479.5 352.5558,-479.5 409.596,-479.5 409.596,-479.5 412.4293,-479.5 415.2627,-482.3333 415.2627,-485.1667 415.2627,-485.1667 415.2627,-490.8333 415.2627,-490.8333 415.2627,-493.6667 412.4293,-496.5 409.596,-496.5"/>
<text text-anchor="middle" x="381.0759" y="-485.3" font-family="Helvetica,sans-Serif" font-size="9.00" fill="#000000">Timetable.jsx</text>
</a>
</g>
</g>
<!-- src/schedule/screens/Schedule.jsx&#45;&gt;src/schedule/views/Timetable.jsx -->
<g id="edge36" class="edge">
<title>src/schedule/screens/Schedule.jsx&#45;&gt;src/schedule/views/Timetable.jsx</title>
<path fill="none" stroke="#000000" stroke-width="2" stroke-opacity="0.466667" d="M304.3429,-508.4559C315.2009,-505.5613 327.4966,-502.2834 339.0139,-499.2131"/>
<polygon fill="#000000" fill-opacity="0.466667" stroke="#000000" stroke-width="2" stroke-opacity="0.466667" points="340.118,-502.5411 348.8789,-496.5832 338.3148,-495.7773 340.118,-502.5411"/>
</g>
<!-- src/schedule/screens/Schedule.jsx&#45;&gt;src/views/Message.jsx -->
<g id="edge33" class="edge">
<title>src/schedule/screens/Schedule.jsx&#45;&gt;src/views/Message.jsx</title>
<path fill="none" stroke="#000000" stroke-width="2" stroke-opacity="0.466667" d="M281.1577,-525.7625C291.0307,-534.8479 307.9333,-548.4802 325.5537,-554 372.4347,-568.6859 395.6385,-581.8775 436.0903,-554 444.3142,-548.3325 436.749,-539.7719 444.0903,-533 446.7382,-530.5575 449.7617,-528.5106 452.9869,-526.7956"/>
<polygon fill="#000000" fill-opacity="0.466667" stroke="#000000" stroke-width="2" stroke-opacity="0.466667" points="454.6182,-529.9059 462.4659,-522.788 451.8923,-523.4585 454.6182,-529.9059"/>
</g>
<!-- src/schedule/views/LessonCard.jsx&#45;&gt;src/views/HorizontalLine.jsx -->
<g id="edge37" class="edge">
<title>src/schedule/views/LessonCard.jsx&#45;&gt;src/views/HorizontalLine.jsx</title>
<path fill="none" stroke="#000000" stroke-width="2" stroke-opacity="0.466667" d="M413.5896,-525.5166C425.9214,-528.7467 440.1495,-532.4736 453.257,-535.907"/>
<polygon fill="#000000" fill-opacity="0.466667" stroke="#000000" stroke-width="2" stroke-opacity="0.466667" points="452.4515,-539.314 463.012,-538.4622 454.2252,-532.5424 452.4515,-539.314"/>
</g>
<!-- src/settings/actions.js -->
<g id="node18" class="node">
<title>src/settings/actions.js</title>
<g id="a_node18"><a xlink:href="src/settings/actions.js" xlink:title="actions.js">
<path fill="#ffffcc" stroke="#000000" d="M402.4093,-643.5C402.4093,-643.5 359.7426,-643.5 359.7426,-643.5 356.9093,-643.5 354.0759,-640.6667 354.0759,-637.8333 354.0759,-637.8333 354.0759,-632.1667 354.0759,-632.1667 354.0759,-629.3333 356.9093,-626.5 359.7426,-626.5 359.7426,-626.5 402.4093,-626.5 402.4093,-626.5 405.2426,-626.5 408.0759,-629.3333 408.0759,-632.1667 408.0759,-632.1667 408.0759,-637.8333 408.0759,-637.8333 408.0759,-640.6667 405.2426,-643.5 402.4093,-643.5"/>
<text text-anchor="middle" x="381.0759" y="-632.3" font-family="Helvetica,sans-Serif" font-size="9.00" fill="#000000">actions.js</text>
</a>
</g>
</g>
<!-- src/settings/actions.js&#45;&gt;app.json -->
<g id="edge38" class="edge">
<title>src/settings/actions.js&#45;&gt;app.json</title>
<path fill="none" stroke="#000000" stroke-width="2" stroke-opacity="0.466667" d="M389.0043,-626.3047C401.3196,-612.2531 424.801,-583.1704 436.0903,-554 445.1646,-530.5531 440.2897,-522.8526 444.0903,-498 461.3601,-385.0719 484.1046,-249.7957 492.4024,-200.8402"/>
<polygon fill="#000000" fill-opacity="0.466667" stroke="#000000" stroke-width="2" stroke-opacity="0.466667" points="495.8861,-201.2312 494.1093,-190.7864 488.9848,-200.0595 495.8861,-201.2312"/>
</g>
<!-- src/settings/index.js&#45;&gt;src/settings/actions.js -->
<g id="edge40" class="edge">
<title>src/settings/index.js&#45;&gt;src/settings/actions.js</title>
<path fill="none" stroke="#000000" stroke-width="2" stroke-opacity="0.466667" d="M195.1912,-673.4967C200.0279,-661.8783 210.4857,-641.5149 227.0317,-633 263.4052,-614.2816 311.3016,-618.6437 343.9687,-625.1889"/>
<polygon fill="#000000" fill-opacity="0.466667" stroke="#000000" stroke-width="2" stroke-opacity="0.466667" points="343.4915,-628.6666 354.0059,-627.3642 344.9742,-621.8254 343.4915,-628.6666"/>
</g>
<!-- src/settings/reducers/settings.js -->
<g id="node20" class="node">
<title>src/settings/reducers/settings.js</title>
<g id="a_node20"><a xlink:href="src/settings/reducers/settings.js" xlink:title="settings.js">
<path fill="#ffffcc" stroke="#000000" d="M294.6427,-661.5C294.6427,-661.5 249.9428,-661.5 249.9428,-661.5 247.1095,-661.5 244.2761,-658.6667 244.2761,-655.8333 244.2761,-655.8333 244.2761,-650.1667 244.2761,-650.1667 244.2761,-647.3333 247.1095,-644.5 249.9428,-644.5 249.9428,-644.5 294.6427,-644.5 294.6427,-644.5 297.476,-644.5 300.3093,-647.3333 300.3093,-650.1667 300.3093,-650.1667 300.3093,-655.8333 300.3093,-655.8333 300.3093,-658.6667 297.476,-661.5 294.6427,-661.5"/>
<text text-anchor="middle" x="272.2927" y="-650.3" font-family="Helvetica,sans-Serif" font-size="9.00" fill="#000000">settings.js</text>
</a>
</g>
</g>
<!-- src/settings/index.js&#45;&gt;src/settings/reducers/settings.js -->
<g id="edge41" class="edge">
<title>src/settings/index.js&#45;&gt;src/settings/reducers/settings.js</title>
<path fill="none" stroke="#000000" stroke-width="2" stroke-opacity="0.466667" d="M215.6786,-673.4559C222.9614,-670.8244 231.1209,-667.8763 238.9285,-665.0552"/>
<polygon fill="#000000" fill-opacity="0.466667" stroke="#000000" stroke-width="2" stroke-opacity="0.466667" points="240.322,-668.2732 248.5376,-661.5832 237.9432,-661.6898 240.322,-668.2732"/>
</g>
<!-- src/settings/screens/Information.jsx -->
<g id="node21" class="node">
<title>src/settings/screens/Information.jsx</title>
<g id="a_node21"><a xlink:href="src/settings/screens/Information.jsx" xlink:title="Information.jsx">
<path fill="#ffff77" stroke="#000000" d="M303.6496,-720.5C303.6496,-720.5 240.9359,-720.5 240.9359,-720.5 238.1026,-720.5 235.2692,-717.6667 235.2692,-714.8333 235.2692,-714.8333 235.2692,-709.1667 235.2692,-709.1667 235.2692,-706.3333 238.1026,-703.5 240.9359,-703.5 240.9359,-703.5 303.6496,-703.5 303.6496,-703.5 306.4829,-703.5 309.3162,-706.3333 309.3162,-709.1667 309.3162,-709.1667 309.3162,-714.8333 309.3162,-714.8333 309.3162,-717.6667 306.4829,-720.5 303.6496,-720.5"/>
<text text-anchor="middle" x="272.2927" y="-709.3" font-family="Helvetica,sans-Serif" font-size="9.00" fill="#000000">Information.jsx</text>
</a>
</g>
</g>
<!-- src/settings/index.js&#45;&gt;src/settings/screens/Information.jsx -->
<g id="edge42" class="edge">
<title>src/settings/index.js&#45;&gt;src/settings/screens/Information.jsx</title>
<path fill="none" stroke="#000000" stroke-width="2" stroke-opacity="0.466667" d="M214.8166,-690.5166C222.6113,-693.43 231.487,-696.7476 239.8925,-699.8894"/>
<polygon fill="#000000" fill-opacity="0.466667" stroke="#000000" stroke-width="2" stroke-opacity="0.466667" points="238.8584,-703.2393 249.4509,-703.4622 241.3093,-696.6824 238.8584,-703.2393"/>
</g>
<!-- src/settings/screens/Report.jsx -->
<g id="node22" class="node">
<title>src/settings/screens/Report.jsx</title>
<g id="a_node22"><a xlink:href="src/settings/screens/Report.jsx" xlink:title="Report.jsx">
<path fill="#ffff77" stroke="#000000" d="M294.6413,-749.5C294.6413,-749.5 249.9441,-749.5 249.9441,-749.5 247.1108,-749.5 244.2775,-746.6667 244.2775,-743.8333 244.2775,-743.8333 244.2775,-738.1667 244.2775,-738.1667 244.2775,-735.3333 247.1108,-732.5 249.9441,-732.5 249.9441,-732.5 294.6413,-732.5 294.6413,-732.5 297.4747,-732.5 300.308,-735.3333 300.308,-738.1667 300.308,-738.1667 300.308,-743.8333 300.308,-743.8333 300.308,-746.6667 297.4747,-749.5 294.6413,-749.5"/>
<text text-anchor="middle" x="272.2927" y="-738.3" font-family="Helvetica,sans-Serif" font-size="9.00" fill="#000000">Report.jsx</text>
</a>
</g>
</g>
<!-- src/settings/index.js&#45;&gt;src/settings/screens/Report.jsx -->
<g id="edge43" class="edge">
<title>src/settings/index.js&#45;&gt;src/settings/screens/Report.jsx</title>
<path fill="none" stroke="#000000" stroke-width="2" stroke-opacity="0.466667" d="M196.5418,-690.5839C202.2985,-700.7275 213.1915,-717.4321 227.0317,-727 229.4421,-728.6663 232.058,-730.1399 234.7758,-731.4422"/>
<polygon fill="#000000" fill-opacity="0.466667" stroke="#000000" stroke-width="2" stroke-opacity="0.466667" points="233.6724,-734.7706 244.2568,-735.2412 236.2761,-728.2728 233.6724,-734.7706"/>
</g>
<!-- src/settings/screens/Settings.jsx -->
<g id="node23" class="node">
<title>src/settings/screens/Settings.jsx</title>
<g id="a_node23"><a xlink:href="src/settings/screens/Settings.jsx" xlink:title="Settings.jsx">
<path fill="#ffff77" stroke="#000000" d="M297.6456,-778.5C297.6456,-778.5 246.9399,-778.5 246.9399,-778.5 244.1065,-778.5 241.2732,-775.6667 241.2732,-772.8333 241.2732,-772.8333 241.2732,-767.1667 241.2732,-767.1667 241.2732,-764.3333 244.1065,-761.5 246.9399,-761.5 246.9399,-761.5 297.6456,-761.5 297.6456,-761.5 300.4789,-761.5 303.3123,-764.3333 303.3123,-767.1667 303.3123,-767.1667 303.3123,-772.8333 303.3123,-772.8333 303.3123,-775.6667 300.4789,-778.5 297.6456,-778.5"/>
<text text-anchor="middle" x="272.2927" y="-767.3" font-family="Helvetica,sans-Serif" font-size="9.00" fill="#000000">Settings.jsx</text>
</a>
</g>
</g>
<!-- src/settings/index.js&#45;&gt;src/settings/screens/Settings.jsx -->
<g id="edge44" class="edge">
<title>src/settings/index.js&#45;&gt;src/settings/screens/Settings.jsx</title>
<path fill="none" stroke="#000000" stroke-width="2" stroke-opacity="0.466667" d="M193.7438,-690.6916C197.2344,-706.1148 206.6335,-738.3072 227.0317,-756 228.5696,-757.3339 230.2331,-758.5407 231.9837,-759.6325"/>
<polygon fill="#000000" fill-opacity="0.466667" stroke="#000000" stroke-width="2" stroke-opacity="0.466667" points="230.7626,-762.9318 241.2825,-764.1898 233.8432,-756.6461 230.7626,-762.9318"/>
</g>
<!-- src/settings/index.js&#45;&gt;src/views/Web.jsx -->
<g id="edge39" class="edge">
<title>src/settings/index.js&#45;&gt;src/views/Web.jsx</title>
<path fill="none" stroke="#000000" stroke-width="2" stroke-opacity="0.466667" d="M193.4562,-690.5606C197.7946,-715.7544 211.5,-788.9989 227.0317,-807 289.0597,-878.8897 367.6346,-916.7983 436.0903,-851 452.2846,-835.4344 436.8741,-670.2713 444.0903,-649 451.4361,-627.3469 467.4029,-606.4264 479.627,-592.574"/>
<polygon fill="#000000" fill-opacity="0.466667" stroke="#000000" stroke-width="2" stroke-opacity="0.466667" points="482.4669,-594.6556 486.6442,-584.919 477.3068,-589.9255 482.4669,-594.6556"/>
</g>
<!-- src/settings/reducers/settings.js&#45;&gt;src/settings/actions.js -->
<g id="edge45" class="edge">
<title>src/settings/reducers/settings.js&#45;&gt;src/settings/actions.js</title>
<path fill="none" stroke="#000000" stroke-width="2" stroke-opacity="0.466667" d="M300.3071,-648.3646C313.5793,-646.1685 329.6161,-643.5149 343.8905,-641.153"/>
<polygon fill="#000000" fill-opacity="0.466667" stroke="#000000" stroke-width="2" stroke-opacity="0.466667" points="344.6137,-644.581 353.9081,-639.4954 343.4709,-637.6749 344.6137,-644.581"/>
</g>
<!-- src/settings/screens/Information.jsx&#45;&gt;src/settings/actions.js -->
<g id="edge46" class="edge">
<title>src/settings/screens/Information.jsx&#45;&gt;src/settings/actions.js</title>
<path fill="none" stroke="#000000" stroke-width="2" stroke-opacity="0.466667" d="M300.074,-703.4303C306.6691,-700.1863 313.08,-695.8178 317.5537,-690 328.871,-675.2824 312.7869,-662.4796 325.5537,-649 330.4681,-643.8112 337.0009,-640.4327 343.8556,-638.2568"/>
<polygon fill="#000000" fill-opacity="0.466667" stroke="#000000" stroke-width="2" stroke-opacity="0.466667" points="345.0541,-641.5698 353.9778,-635.8587 343.4403,-634.7584 345.0541,-641.5698"/>
</g>
<!-- src/settings/screens/Report.jsx&#45;&gt;src/errors.js -->
<g id="edge47" class="edge">
<title>src/settings/screens/Report.jsx&#45;&gt;src/errors.js</title>
<path fill="none" stroke="#000000" stroke-width="2" stroke-opacity="0.466667" d="M300.4816,-737.9903C307.0736,-735.9071 313.381,-732.5068 317.5537,-727 338.1617,-699.8032 304.2326,-446.6415 325.5537,-420 330.2085,-414.1837 336.8957,-410.573 344.0266,-408.3749"/>
<polygon fill="#000000" fill-opacity="0.466667" stroke="#000000" stroke-width="2" stroke-opacity="0.466667" points="344.8777,-411.7711 353.8763,-406.1787 343.3543,-404.9389 344.8777,-411.7711"/>
</g>
<!-- src/settings/screens/Report.jsx&#45;&gt;src/settings/actions.js -->
<g id="edge49" class="edge">
<title>src/settings/screens/Report.jsx&#45;&gt;src/settings/actions.js</title>
<path fill="none" stroke="#000000" stroke-width="2" stroke-opacity="0.466667" d="M300.6724,-737.619C307.0986,-735.5279 313.2787,-732.2167 317.5537,-727 339.6422,-700.046 302.7591,-675.3595 325.5537,-649 330.2721,-643.5437 336.7764,-640.0558 343.6751,-637.8588"/>
<polygon fill="#000000" fill-opacity="0.466667" stroke="#000000" stroke-width="2" stroke-opacity="0.466667" points="344.9533,-641.1552 353.9028,-635.4845 343.3703,-634.3365 344.9533,-641.1552"/>
</g>
<!-- src/settings/views/Button.jsx -->
<g id="node24" class="node">
<title>src/settings/views/Button.jsx</title>
<g id="a_node24"><a xlink:href="src/settings/views/Button.jsx" xlink:title="Button.jsx">
<path fill="#ffff77" stroke="#000000" d="M402.9313,-706.5C402.9313,-706.5 359.2205,-706.5 359.2205,-706.5 356.3872,-706.5 353.5539,-703.6667 353.5539,-700.8333 353.5539,-700.8333 353.5539,-695.1667 353.5539,-695.1667 353.5539,-692.3333 356.3872,-689.5 359.2205,-689.5 359.2205,-689.5 402.9313,-689.5 402.9313,-689.5 405.7647,-689.5 408.598,-692.3333 408.598,-695.1667 408.598,-695.1667 408.598,-700.8333 408.598,-700.8333 408.598,-703.6667 405.7647,-706.5 402.9313,-706.5"/>
<text text-anchor="middle" x="381.0759" y="-695.3" font-family="Helvetica,sans-Serif" font-size="9.00" fill="#000000">Button.jsx</text>
</a>
</g>
</g>
<!-- src/settings/screens/Report.jsx&#45;&gt;src/settings/views/Button.jsx -->
<g id="edge50" class="edge">
<title>src/settings/screens/Report.jsx&#45;&gt;src/settings/views/Button.jsx</title>
<path fill="none" stroke="#000000" stroke-width="2" stroke-opacity="0.466667" d="M300.7215,-735.7686C306.7062,-733.7327 312.6766,-730.9103 317.5537,-727 323.145,-722.5171 319.8824,-717.3812 325.5537,-713 330.791,-708.9541 337.0383,-705.9977 343.4214,-703.8379"/>
<polygon fill="#000000" fill-opacity="0.466667" stroke="#000000" stroke-width="2" stroke-opacity="0.466667" points="344.7387,-707.1047 353.4383,-701.0575 342.8665,-700.3597 344.7387,-707.1047"/>
</g>
<!-- src/settings/views/TextInput.jsx -->
<g id="node29" class="node">
<title>src/settings/views/TextInput.jsx</title>
<g id="a_node29"><a xlink:href="src/settings/views/TextInput.jsx" xlink:title="TextInput.jsx">
<path fill="#ffff77" stroke="#000000" d="M408.4322,-677.5C408.4322,-677.5 353.7196,-677.5 353.7196,-677.5 350.8863,-677.5 348.053,-674.6667 348.053,-671.8333 348.053,-671.8333 348.053,-666.1667 348.053,-666.1667 348.053,-663.3333 350.8863,-660.5 353.7196,-660.5 353.7196,-660.5 408.4322,-660.5 408.4322,-660.5 411.2655,-660.5 414.0989,-663.3333 414.0989,-666.1667 414.0989,-666.1667 414.0989,-671.8333 414.0989,-671.8333 414.0989,-674.6667 411.2655,-677.5 408.4322,-677.5"/>
<text text-anchor="middle" x="381.0759" y="-666.3" font-family="Helvetica,sans-Serif" font-size="9.00" fill="#000000">TextInput.jsx</text>
</a>
</g>
</g>
<!-- src/settings/screens/Report.jsx&#45;&gt;src/settings/views/TextInput.jsx -->
<g id="edge51" class="edge">
<title>src/settings/screens/Report.jsx&#45;&gt;src/settings/views/TextInput.jsx</title>
<path fill="none" stroke="#000000" stroke-width="2" stroke-opacity="0.466667" d="M300.382,-737.3709C306.8137,-735.2845 313.0691,-732.0377 317.5537,-727 330.479,-712.4806 312.3683,-698.2836 325.5537,-684 329.103,-680.1551 333.5259,-677.2557 338.316,-675.076"/>
<polygon fill="#000000" fill-opacity="0.466667" stroke="#000000" stroke-width="2" stroke-opacity="0.466667" points="339.5822,-678.3408 347.847,-671.7117 337.2522,-671.7399 339.5822,-678.3408"/>
</g>
<!-- src/settings/views/ValuePicker.jsx -->
<g id="node30" class="node">
<title>src/settings/views/ValuePicker.jsx</title>
<g id="a_node30"><a xlink:href="src/settings/views/ValuePicker.jsx" xlink:title="ValuePicker.jsx">
<path fill="#ffff77" stroke="#000000" d="M413.7778,-793.5C413.7778,-793.5 348.374,-793.5 348.374,-793.5 345.5407,-793.5 342.7074,-790.6667 342.7074,-787.8333 342.7074,-787.8333 342.7074,-782.1667 342.7074,-782.1667 342.7074,-779.3333 345.5407,-776.5 348.374,-776.5 348.374,-776.5 413.7778,-776.5 413.7778,-776.5 416.6112,-776.5 419.4445,-779.3333 419.4445,-782.1667 419.4445,-782.1667 419.4445,-787.8333 419.4445,-787.8333 419.4445,-790.6667 416.6112,-793.5 413.7778,-793.5"/>
<text text-anchor="middle" x="381.0759" y="-782.3" font-family="Helvetica,sans-Serif" font-size="9.00" fill="#000000">ValuePicker.jsx</text>
</a>
</g>
</g>
<!-- src/settings/screens/Report.jsx&#45;&gt;src/settings/views/ValuePicker.jsx -->
<g id="edge52" class="edge">
<title>src/settings/screens/Report.jsx&#45;&gt;src/settings/views/ValuePicker.jsx</title>
<path fill="none" stroke="#000000" stroke-width="2" stroke-opacity="0.466667" d="M300.3487,-746.6349C306.4868,-748.82 312.617,-751.8382 317.5537,-756 323.3304,-760.8699 319.6031,-766.3442 325.5537,-771 327.9808,-772.899 330.6343,-774.5433 333.4236,-775.9669"/>
<polygon fill="#000000" fill-opacity="0.466667" stroke="#000000" stroke-width="2" stroke-opacity="0.466667" points="332.1066,-779.2097 342.6847,-779.8033 334.7856,-772.7426 332.1066,-779.2097"/>
</g>
<!-- src/settings/screens/Report.jsx&#45;&gt;src/views/Message.jsx -->
<g id="edge48" class="edge">
<title>src/settings/screens/Report.jsx&#45;&gt;src/views/Message.jsx</title>
<path fill="none" stroke="#000000" stroke-width="2" stroke-opacity="0.466667" d="M300.3276,-737.8711C306.9208,-735.7887 313.2673,-732.4187 317.5537,-727 333.8593,-706.3871 309.9901,-630.1788 325.5537,-609 356.769,-566.5225 401.3786,-605.6715 436.0903,-566 446.028,-554.6424 433.6645,-543.9113 444.0903,-533 446.7228,-530.245 449.8293,-527.9874 453.1912,-526.1386"/>
<polygon fill="#000000" fill-opacity="0.466667" stroke="#000000" stroke-width="2" stroke-opacity="0.466667" points="454.7204,-529.2913 462.5366,-522.1389 451.966,-522.856 454.7204,-529.2913"/>
</g>
<!-- src/settings/screens/Settings.jsx&#45;&gt;../../../app -->
<g id="edge53" class="edge">
<title>src/settings/screens/Settings.jsx&#45;&gt;../../../app</title>
<path fill="none" stroke="#000000" stroke-width="2" stroke-opacity="0.466667" d="M303.3212,-766.0427C308.8668,-763.9186 314.0012,-760.7382 317.5537,-756 325.953,-744.7973 323.6472,-265.8714 325.5537,-252 335.5565,-179.2227 362.2685,-95.618 374.6322,-59.3585"/>
<polygon fill="#000000" fill-opacity="0.466667" stroke="#000000" stroke-width="2" stroke-opacity="0.466667" points="378.0152,-60.2847 377.9742,-49.6899 371.3993,-57.9978 378.0152,-60.2847"/>
</g>
<!-- src/settings/screens/Settings.jsx&#45;&gt;src/settings/actions.js -->
<g id="edge55" class="edge">
<title>src/settings/screens/Settings.jsx&#45;&gt;src/settings/actions.js</title>
<path fill="none" stroke="#000000" stroke-width="2" stroke-opacity="0.466667" d="M303.5705,-765.6994C308.9563,-763.5904 313.9661,-760.5032 317.5537,-756 332.4114,-737.3508 310.2073,-667.2491 325.5537,-649 330.1964,-643.4792 336.6679,-639.9633 343.5586,-637.7593"/>
<polygon fill="#000000" fill-opacity="0.466667" stroke="#000000" stroke-width="2" stroke-opacity="0.466667" points="344.8382,-641.0556 353.7898,-635.3882 343.2578,-634.2363 344.8382,-641.0556"/>
</g>
<!-- src/settings/views/CategoryHeader.jsx -->
<g id="node25" class="node">
<title>src/settings/views/CategoryHeader.jsx</title>
<g id="a_node25"><a xlink:href="src/settings/views/CategoryHeader.jsx" xlink:title="CategoryHeader.jsx">
<path fill="#ffff77" stroke="#000000" d="M422.9537,-822.5C422.9537,-822.5 339.1982,-822.5 339.1982,-822.5 336.3648,-822.5 333.5315,-819.6667 333.5315,-816.8333 333.5315,-816.8333 333.5315,-811.1667 333.5315,-811.1667 333.5315,-808.3333 336.3648,-805.5 339.1982,-805.5 339.1982,-805.5 422.9537,-805.5 422.9537,-805.5 425.787,-805.5 428.6204,-808.3333 428.6204,-811.1667 428.6204,-811.1667 428.6204,-816.8333 428.6204,-816.8333 428.6204,-819.6667 425.787,-822.5 422.9537,-822.5"/>
<text text-anchor="middle" x="381.0759" y="-811.3" font-family="Helvetica,sans-Serif" font-size="9.00" fill="#000000">CategoryHeader.jsx</text>
</a>
</g>
</g>
<!-- src/settings/screens/Settings.jsx&#45;&gt;src/settings/views/CategoryHeader.jsx -->
<g id="edge56" class="edge">
<title>src/settings/screens/Settings.jsx&#45;&gt;src/settings/views/CategoryHeader.jsx</title>
<path fill="none" stroke="#000000" stroke-width="2" stroke-opacity="0.466667" d="M303.7588,-775.2447C308.749,-777.0995 313.5698,-779.608 317.5537,-783 322.4215,-787.1446 320.7467,-791.796 326.3094,-798.5482"/>
<polygon fill="#000000" fill-opacity="0.466667" stroke="#000000" stroke-width="2" stroke-opacity="0.466667" points="324.0895,-801.26 333.848,-805.3856 328.7922,-796.0749 324.0895,-801.26"/>
</g>
<!-- src/settings/views/LinkView.jsx -->
<g id="node26" class="node">
<title>src/settings/views/LinkView.jsx</title>
<g id="a_node26"><a xlink:href="src/settings/views/LinkView.jsx" xlink:title="LinkView.jsx">
<path fill="#ffff77" stroke="#000000" d="M407.7766,-764.5C407.7766,-764.5 354.3753,-764.5 354.3753,-764.5 351.5419,-764.5 348.7086,-761.6667 348.7086,-758.8333 348.7086,-758.8333 348.7086,-753.1667 348.7086,-753.1667 348.7086,-750.3333 351.5419,-747.5 354.3753,-747.5 354.3753,-747.5 407.7766,-747.5 407.7766,-747.5 410.6099,-747.5 413.4433,-750.3333 413.4433,-753.1667 413.4433,-753.1667 413.4433,-758.8333 413.4433,-758.8333 413.4433,-761.6667 410.6099,-764.5 407.7766,-764.5"/>
<text text-anchor="middle" x="381.0759" y="-753.3" font-family="Helvetica,sans-Serif" font-size="9.00" fill="#000000">LinkView.jsx</text>
</a>
</g>
</g>
<!-- src/settings/screens/Settings.jsx&#45;&gt;src/settings/views/LinkView.jsx -->
<g id="edge57" class="edge">
<title>src/settings/screens/Settings.jsx&#45;&gt;src/settings/views/LinkView.jsx</title>
<path fill="none" stroke="#000000" stroke-width="2" stroke-opacity="0.466667" d="M303.4656,-765.9882C314.3429,-764.5883 326.7453,-762.9922 338.3952,-761.4929"/>
<polygon fill="#000000" fill-opacity="0.466667" stroke="#000000" stroke-width="2" stroke-opacity="0.466667" points="338.9107,-764.9555 348.3821,-760.2076 338.0171,-758.0127 338.9107,-764.9555"/>
</g>
<!-- src/settings/screens/Settings.jsx&#45;&gt;src/settings/views/ValuePicker.jsx -->
<g id="edge58" class="edge">
<title>src/settings/screens/Settings.jsx&#45;&gt;src/settings/views/ValuePicker.jsx</title>
<path fill="none" stroke="#000000" stroke-width="2" stroke-opacity="0.466667" d="M303.4656,-774.2984C312.5055,-775.5449 322.5987,-776.9366 332.438,-778.2934"/>
<polygon fill="#000000" fill-opacity="0.466667" stroke="#000000" stroke-width="2" stroke-opacity="0.466667" points="332.1604,-781.7881 342.5448,-779.687 333.1167,-774.8537 332.1604,-781.7881"/>
</g>
<!-- src/settings/views/ValueSwitcher.jsx -->
<g id="node31" class="node">
<title>src/settings/views/ValueSwitcher.jsx</title>
<g id="a_node31"><a xlink:href="src/settings/views/ValueSwitcher.jsx" xlink:title="ValueSwitcher.jsx">
<path fill="#ffff77" stroke="#000000" d="M418.2824,-735.5C418.2824,-735.5 343.8695,-735.5 343.8695,-735.5 341.0361,-735.5 338.2028,-732.6667 338.2028,-729.8333 338.2028,-729.8333 338.2028,-724.1667 338.2028,-724.1667 338.2028,-721.3333 341.0361,-718.5 343.8695,-718.5 343.8695,-718.5 418.2824,-718.5 418.2824,-718.5 421.1157,-718.5 423.9491,-721.3333 423.9491,-724.1667 423.9491,-724.1667 423.9491,-729.8333 423.9491,-729.8333 423.9491,-732.6667 421.1157,-735.5 418.2824,-735.5"/>
<text text-anchor="middle" x="381.0759" y="-724.3" font-family="Helvetica,sans-Serif" font-size="9.00" fill="#000000">ValueSwitcher.jsx</text>
</a>
</g>
</g>
<!-- src/settings/screens/Settings.jsx&#45;&gt;src/settings/views/ValueSwitcher.jsx -->
<g id="edge59" class="edge">
<title>src/settings/screens/Settings.jsx&#45;&gt;src/settings/views/ValueSwitcher.jsx</title>
<path fill="none" stroke="#000000" stroke-width="2" stroke-opacity="0.466667" d="M303.5511,-763.7442C308.5644,-761.8143 313.4467,-759.2929 317.5537,-756 323.145,-751.5171 319.8824,-746.3812 325.5537,-742 326.739,-741.0844 327.9759,-740.2246 329.2545,-739.4171"/>
<polygon fill="#000000" fill-opacity="0.466667" stroke="#000000" stroke-width="2" stroke-opacity="0.466667" points="330.9032,-742.505 338.1891,-734.8129 327.6967,-736.2826 330.9032,-742.505"/>
</g>
<!-- src/settings/screens/Settings.jsx&#45;&gt;src/views/HorizontalLine.jsx -->
<g id="edge54" class="edge">
<title>src/settings/screens/Settings.jsx&#45;&gt;src/views/HorizontalLine.jsx</title>
<path fill="none" stroke="#000000" stroke-width="2" stroke-opacity="0.466667" d="M303.6303,-765.7467C309.0112,-763.6338 314.0038,-760.533 317.5537,-756 336.4932,-731.8152 305.8925,-641.6017 325.5537,-618 357.9222,-579.1441 399.8055,-626.2266 436.0903,-591 445.6834,-581.6867 434.7033,-571.521 444.0903,-562 444.2457,-561.8425 444.4025,-561.6865 444.5609,-561.5323"/>
<polygon fill="#000000" fill-opacity="0.466667" stroke="#000000" stroke-width="2" stroke-opacity="0.466667" points="446.5989,-564.3782 452.5652,-555.6229 442.4413,-558.7466 446.5989,-564.3782"/>
</g>
<!-- src/settings/views/LinkView.jsx&#45;&gt;src/views/HorizontalLine.jsx -->
<g id="edge60" class="edge">
<title>src/settings/views/LinkView.jsx&#45;&gt;src/views/HorizontalLine.jsx</title>
<path fill="none" stroke="#000000" stroke-width="2" stroke-opacity="0.466667" d="M413.6983,-754.5859C422.2184,-752.5689 430.5544,-748.8038 436.0903,-742 448.7254,-726.4712 431.7222,-577.7423 444.0903,-562 444.1587,-561.913 444.2275,-561.8265 444.2968,-561.7405"/>
<polygon fill="#000000" fill-opacity="0.466667" stroke="#000000" stroke-width="2" stroke-opacity="0.466667" points="446.7104,-564.279 451.9162,-555.0512 442.0921,-559.0185 446.7104,-564.279"/>
</g>
<!-- src/settings/views/PickerItem.jsx -->
<g id="node27" class="node">
<title>src/settings/views/PickerItem.jsx</title>
<g id="a_node27"><a xlink:href="src/settings/views/PickerItem.jsx" xlink:title="PickerItem.jsx">
<path fill="#ffff77" stroke="#000000" d="M621.4693,-793.5C621.4693,-793.5 560.7861,-793.5 560.7861,-793.5 557.9527,-793.5 555.1194,-790.6667 555.1194,-787.8333 555.1194,-787.8333 555.1194,-782.1667 555.1194,-782.1667 555.1194,-779.3333 557.9527,-776.5 560.7861,-776.5 560.7861,-776.5 621.4693,-776.5 621.4693,-776.5 624.3027,-776.5 627.136,-779.3333 627.136,-782.1667 627.136,-782.1667 627.136,-787.8333 627.136,-787.8333 627.136,-790.6667 624.3027,-793.5 621.4693,-793.5"/>
<text text-anchor="middle" x="591.1277" y="-782.3" font-family="Helvetica,sans-Serif" font-size="9.00" fill="#000000">PickerItem.jsx</text>
</a>
</g>
</g>
<!-- src/settings/views/PickerModal.jsx -->
<g id="node28" class="node">
<title>src/settings/views/PickerModal.jsx</title>
<g id="a_node28"><a xlink:href="src/settings/views/PickerModal.jsx" xlink:title="PickerModal.jsx">
<path fill="#ffff77" stroke="#000000" d="M529.4578,-793.5C529.4578,-793.5 461.756,-793.5 461.756,-793.5 458.9227,-793.5 456.0894,-790.6667 456.0894,-787.8333 456.0894,-787.8333 456.0894,-782.1667 456.0894,-782.1667 456.0894,-779.3333 458.9227,-776.5 461.756,-776.5 461.756,-776.5 529.4578,-776.5 529.4578,-776.5 532.2912,-776.5 535.1245,-779.3333 535.1245,-782.1667 535.1245,-782.1667 535.1245,-787.8333 535.1245,-787.8333 535.1245,-790.6667 532.2912,-793.5 529.4578,-793.5"/>
<text text-anchor="middle" x="495.6069" y="-782.3" font-family="Helvetica,sans-Serif" font-size="9.00" fill="#000000">PickerModal.jsx</text>
</a>
</g>
</g>
<!-- src/settings/views/PickerModal.jsx&#45;&gt;src/settings/views/PickerItem.jsx -->
<g id="edge61" class="edge">
<title>src/settings/views/PickerModal.jsx&#45;&gt;src/settings/views/PickerItem.jsx</title>
<path fill="none" stroke="#000000" stroke-width="2" stroke-opacity="0.466667" d="M535.2865,-785C538.4645,-785 541.6917,-785 544.9095,-785"/>
<polygon fill="#000000" fill-opacity="0.466667" stroke="#000000" stroke-width="2" stroke-opacity="0.466667" points="545.0835,-788.5001 555.0835,-785 545.0834,-781.5001 545.0835,-788.5001"/>
</g>
<!-- src/settings/views/ValuePicker.jsx&#45;&gt;src/settings/views/PickerModal.jsx -->
<g id="edge63" class="edge">
<title>src/settings/views/ValuePicker.jsx&#45;&gt;src/settings/views/PickerModal.jsx</title>
<path fill="none" stroke="#000000" stroke-width="2" stroke-opacity="0.466667" d="M419.5317,-785C427.9392,-785 436.9552,-785 445.7353,-785"/>
<polygon fill="#000000" fill-opacity="0.466667" stroke="#000000" stroke-width="2" stroke-opacity="0.466667" points="445.8836,-788.5001 455.8835,-785 445.8835,-781.5001 445.8836,-788.5001"/>
</g>
<!-- src/settings/views/ValuePicker.jsx&#45;&gt;src/views/HorizontalLine.jsx -->
<g id="edge62" class="edge">
<title>src/settings/views/ValuePicker.jsx&#45;&gt;src/views/HorizontalLine.jsx</title>
<path fill="none" stroke="#000000" stroke-width="2" stroke-opacity="0.466667" d="M419.4106,-781.9677C425.8473,-779.7425 431.8147,-776.288 436.0903,-771 450.7018,-752.9288 429.7895,-580.318 444.0903,-562 444.1584,-561.9128 444.227,-561.8261 444.296,-561.7399"/>
<polygon fill="#000000" fill-opacity="0.466667" stroke="#000000" stroke-width="2" stroke-opacity="0.466667" points="446.7121,-564.2758 451.8975,-555.0366 442.0822,-559.0255 446.7121,-564.2758"/>
</g>
<!-- src/settings/views/ValueSwitcher.jsx&#45;&gt;src/views/HorizontalLine.jsx -->
<g id="edge64" class="edge">
<title>src/settings/views/ValueSwitcher.jsx&#45;&gt;src/views/HorizontalLine.jsx</title>
<path fill="none" stroke="#000000" stroke-width="2" stroke-opacity="0.466667" d="M424.0089,-722.0449C428.6386,-719.8912 432.839,-716.9614 436.0903,-713 457.4088,-687.0258 423.2184,-588.3344 444.0903,-562 444.159,-561.9133 444.2282,-561.8271 444.2979,-561.7414"/>
<polygon fill="#000000" fill-opacity="0.466667" stroke="#000000" stroke-width="2" stroke-opacity="0.466667" points="446.7081,-564.2834 451.9419,-555.0715 442.1059,-559.0089 446.7081,-564.2834"/>
</g>
<!-- src/views/Web.jsx&#45;&gt;src/styles.js -->
<g id="edge65" class="edge">
<title>src/views/Web.jsx&#45;&gt;src/styles.js</title>
<path fill="none" stroke="#000000" stroke-width="2" stroke-opacity="0.466667" d="M522.8422,-574.4739C531.7795,-572.5975 540.9834,-568.9426 547.1235,-562 566.287,-540.332 584.3808,-338.1545 589.6164,-274.854"/>
<polygon fill="#000000" fill-opacity="0.466667" stroke="#000000" stroke-width="2" stroke-opacity="0.466667" points="593.118,-274.9767 590.4418,-264.7254 586.1411,-274.4081 593.118,-274.9767"/>
</g>
</g>
</svg>
