<?xml version="1.0" encoding="UTF-8" standalone="no"?>
<!DOCTYPE svg PUBLIC "-//W3C//DTD SVG 1.1//EN"
 "http://www.w3.org/Graphics/SVG/1.1/DTD/svg11.dtd">
<!-- Generated by graphviz version 2.40.1 (20161225.0304)
 -->
<!-- Title: dependency&#45;cruiser output Pages: 1 -->
<svg width="441pt" height="528pt"
 viewBox="0.00 0.00 440.64 528.00" xmlns="http://www.w3.org/2000/svg" xmlns:xlink="http://www.w3.org/1999/xlink">
<g id="graph0" class="graph" transform="scale(1 1) rotate(0) translate(4 524)">
<title>dependency&#45;cruiser output</title>
<polygon fill="#ffffff" stroke="transparent" points="-4,4 -4,-524 436.6421,-524 436.6421,4 -4,4"/>
<g id="clust1" class="cluster">
<title>cluster_src</title>
<path fill="#ffffff" stroke="#000000" stroke-width="2" d="M20,-54.5C20,-54.5 412.6421,-54.5 412.6421,-54.5 418.6421,-54.5 424.6421,-60.5 424.6421,-66.5 424.6421,-66.5 424.6421,-482.5 424.6421,-482.5 424.6421,-488.5 418.6421,-494.5 412.6421,-494.5 412.6421,-494.5 20,-494.5 20,-494.5 14,-494.5 8,-488.5 8,-482.5 8,-482.5 8,-66.5 8,-66.5 8,-60.5 14,-54.5 20,-54.5"/>
<text text-anchor="middle" x="216.321" y="-483.3" font-family="Helvetica,sans-Serif" font-weight="bold" font-size="9.00" fill="#000000">src</text>
</g>
<g id="clust2" class="cluster">
<title>cluster_src/api</title>
<path fill="#ffffff" stroke="#000000" stroke-width="2" d="M119.5259,-109.5C119.5259,-109.5 172.5522,-109.5 172.5522,-109.5 178.5522,-109.5 184.5522,-115.5 184.5522,-121.5 184.5522,-121.5 184.5522,-264.5 184.5522,-264.5 184.5522,-270.5 178.5522,-276.5 172.5522,-276.5 172.5522,-276.5 119.5259,-276.5 119.5259,-276.5 113.5259,-276.5 107.5259,-270.5 107.5259,-264.5 107.5259,-264.5 107.5259,-121.5 107.5259,-121.5 107.5259,-115.5 113.5259,-109.5 119.5259,-109.5"/>
<text text-anchor="middle" x="146.0391" y="-265.3" font-family="Helvetica,sans-Serif" font-weight="bold" font-size="9.00" fill="#000000">api</text>
</g>
<g id="clust3" class="cluster">
<title>cluster_src/db</title>
<path fill="#ffffff" stroke="#000000" stroke-width="2" d="M337.6082,-214.5C337.6082,-214.5 390.6345,-214.5 390.6345,-214.5 396.6345,-214.5 402.6345,-220.5 402.6345,-226.5 402.6345,-226.5 402.6345,-340.5 402.6345,-340.5 402.6345,-346.5 396.6345,-352.5 390.6345,-352.5 390.6345,-352.5 337.6082,-352.5 337.6082,-352.5 331.6082,-352.5 325.6082,-346.5 325.6082,-340.5 325.6082,-340.5 325.6082,-226.5 325.6082,-226.5 325.6082,-220.5 331.6082,-214.5 337.6082,-214.5"/>
<text text-anchor="middle" x="364.1213" y="-341.3" font-family="Helvetica,sans-Serif" font-weight="bold" font-size="9.00" fill="#000000">db</text>
</g>
<g id="clust4" class="cluster">
<title>cluster_src/models</title>
<path fill="#ffffff" stroke="#000000" stroke-width="2" d="M28,-207.5C28,-207.5 87.5259,-207.5 87.5259,-207.5 93.5259,-207.5 99.5259,-213.5 99.5259,-219.5 99.5259,-219.5 99.5259,-420.5 99.5259,-420.5 99.5259,-426.5 93.5259,-432.5 87.5259,-432.5 87.5259,-432.5 28,-432.5 28,-432.5 22,-432.5 16,-426.5 16,-420.5 16,-420.5 16,-219.5 16,-219.5 16,-213.5 22,-207.5 28,-207.5"/>
<text text-anchor="middle" x="57.7629" y="-421.3" font-family="Helvetica,sans-Serif" font-weight="bold" font-size="9.00" fill="#000000">models</text>
</g>
<g id="clust5" class="cluster">
<title>cluster_src/parsers</title>
<path fill="#ffffff" stroke="#000000" stroke-width="2" d="M204.5522,-360.5C204.5522,-360.5 404.6421,-360.5 404.6421,-360.5 410.6421,-360.5 416.6421,-366.5 416.6421,-372.5 416.6421,-372.5 416.6421,-457.5 416.6421,-457.5 416.6421,-463.5 410.6421,-469.5 404.6421,-469.5 404.6421,-469.5 204.5522,-469.5 204.5522,-469.5 198.5522,-469.5 192.5522,-463.5 192.5522,-457.5 192.5522,-457.5 192.5522,-372.5 192.5522,-372.5 192.5522,-366.5 198.5522,-360.5 204.5522,-360.5"/>
<text text-anchor="middle" x="304.5972" y="-458.3" font-family="Helvetica,sans-Serif" font-weight="bold" font-size="9.00" fill="#000000">parsers</text>
</g>
<g id="clust6" class="cluster">
<title>cluster_src/services</title>
<path fill="#ffffff" stroke="#000000" stroke-width="2" d="M227.0632,-68.5C227.0632,-68.5 387.1213,-68.5 387.1213,-68.5 393.1213,-68.5 399.1213,-74.5 399.1213,-80.5 399.1213,-80.5 399.1213,-194.5 399.1213,-194.5 399.1213,-200.5 393.1213,-206.5 387.1213,-206.5 387.1213,-206.5 227.0632,-206.5 227.0632,-206.5 221.0632,-206.5 215.0632,-200.5 215.0632,-194.5 215.0632,-194.5 215.0632,-80.5 215.0632,-80.5 215.0632,-74.5 221.0632,-68.5 227.0632,-68.5"/>
<text text-anchor="middle" x="307.0923" y="-195.3" font-family="Helvetica,sans-Serif" font-weight="bold" font-size="9.00" fill="#000000">services</text>
</g>
<!-- crypto -->
<g id="node1" class="node">
<title>crypto</title>
<path fill="#ffffcc" stroke="#c0c0c0" d="M385.4547,-520C385.4547,-520 342.788,-520 342.788,-520 339.9547,-520 337.1213,-517.1667 337.1213,-514.3333 337.1213,-514.3333 337.1213,-508.6667 337.1213,-508.6667 337.1213,-505.8333 339.9547,-503 342.788,-503 342.788,-503 385.4547,-503 385.4547,-503 388.288,-503 391.1213,-505.8333 391.1213,-508.6667 391.1213,-508.6667 391.1213,-514.3333 391.1213,-514.3333 391.1213,-517.1667 388.288,-520 385.4547,-520"/>
<text text-anchor="middle" x="364.1213" y="-508.8" font-family="Helvetica,sans-Serif" font-size="9.00" fill="#c0c0c0">crypto</text>
</g>
<!-- fs -->
<g id="node2" class="node">
<title>fs</title>
<path fill="#ffffcc" stroke="#c0c0c0" d="M274.9097,-17C274.9097,-17 232.2431,-17 232.2431,-17 229.4097,-17 226.5764,-14.1667 226.5764,-11.3333 226.5764,-11.3333 226.5764,-5.6667 226.5764,-5.6667 226.5764,-2.8333 229.4097,0 232.2431,0 232.2431,0 274.9097,0 274.9097,0 277.7431,0 280.5764,-2.8333 280.5764,-5.6667 280.5764,-5.6667 280.5764,-11.3333 280.5764,-11.3333 280.5764,-14.1667 277.7431,-17 274.9097,-17"/>
<text text-anchor="middle" x="253.5764" y="-5.8" font-family="Helvetica,sans-Serif" font-size="9.00" fill="#c0c0c0">fs</text>
</g>
<!-- ormconfig.js -->
<g id="node3" class="node">
<title>ormconfig.js</title>
<g id="a_node3"><a xlink:href="ormconfig.js" xlink:title="ormconfig.js">
<path fill="#ffffcc" stroke="#000000" d="M172.3898,-45C172.3898,-45 119.6883,-45 119.6883,-45 116.855,-45 114.0216,-42.1667 114.0216,-39.3333 114.0216,-39.3333 114.0216,-33.6667 114.0216,-33.6667 114.0216,-30.8333 116.855,-28 119.6883,-28 119.6883,-28 172.3898,-28 172.3898,-28 175.2232,-28 178.0565,-30.8333 178.0565,-33.6667 178.0565,-33.6667 178.0565,-39.3333 178.0565,-39.3333 178.0565,-42.1667 175.2232,-45 172.3898,-45"/>
<text text-anchor="middle" x="146.0391" y="-33.8" font-family="Helvetica,sans-Serif" font-size="9.00" fill="#000000">ormconfig.js</text>
</a>
</g>
</g>
<!-- path -->
<g id="node4" class="node">
<title>path</title>
<path fill="#ffffcc" stroke="#c0c0c0" d="M274.9097,-46C274.9097,-46 232.2431,-46 232.2431,-46 229.4097,-46 226.5764,-43.1667 226.5764,-40.3333 226.5764,-40.3333 226.5764,-34.6667 226.5764,-34.6667 226.5764,-31.8333 229.4097,-29 232.2431,-29 232.2431,-29 274.9097,-29 274.9097,-29 277.7431,-29 280.5764,-31.8333 280.5764,-34.6667 280.5764,-34.6667 280.5764,-40.3333 280.5764,-40.3333 280.5764,-43.1667 277.7431,-46 274.9097,-46"/>
<text text-anchor="middle" x="253.5764" y="-34.8" font-family="Helvetica,sans-Serif" font-size="9.00" fill="#c0c0c0">path</text>
</g>
<!-- src/api/admin.js -->
<g id="node5" class="node">
<title>src/api/admin.js</title>
<g id="a_node5"><a xlink:href="src/api/admin.js" xlink:title="admin.js">
<path fill="#ffffcc" stroke="#000000" d="M167.3724,-193C167.3724,-193 124.7057,-193 124.7057,-193 121.8724,-193 119.0391,-190.1667 119.0391,-187.3333 119.0391,-187.3333 119.0391,-181.6667 119.0391,-181.6667 119.0391,-178.8333 121.8724,-176 124.7057,-176 124.7057,-176 167.3724,-176 167.3724,-176 170.2057,-176 173.0391,-178.8333 173.0391,-181.6667 173.0391,-181.6667 173.0391,-187.3333 173.0391,-187.3333 173.0391,-190.1667 170.2057,-193 167.3724,-193"/>
<text text-anchor="middle" x="146.0391" y="-181.8" font-family="Helvetica,sans-Serif" font-size="9.00" fill="#000000">admin.js</text>
</a>
</g>
</g>
<!-- src/db/admin.js -->
<g id="node11" class="node">
<title>src/db/admin.js</title>
<g id="a_node11"><a xlink:href="src/db/admin.js" xlink:title="admin.js">
<path fill="#ffffcc" stroke="#000000" d="M385.4547,-327C385.4547,-327 342.788,-327 342.788,-327 339.9547,-327 337.1213,-324.1667 337.1213,-321.3333 337.1213,-321.3333 337.1213,-315.6667 337.1213,-315.6667 337.1213,-312.8333 339.9547,-310 342.788,-310 342.788,-310 385.4547,-310 385.4547,-310 388.288,-310 391.1213,-312.8333 391.1213,-315.6667 391.1213,-315.6667 391.1213,-321.3333 391.1213,-321.3333 391.1213,-324.1667 388.288,-327 385.4547,-327"/>
<text text-anchor="middle" x="364.1213" y="-315.8" font-family="Helvetica,sans-Serif" font-size="9.00" fill="#000000">admin.js</text>
</a>
</g>
</g>
<!-- src/api/admin.js&#45;&gt;src/db/admin.js -->
<g id="edge1" class="edge">
<title>src/api/admin.js&#45;&gt;src/db/admin.js</title>
<path fill="none" stroke="#000000" stroke-width="2" stroke-opacity="0.466667" d="M173.364,-190.864C177.6551,-192.9707 181.6303,-195.773 184.5522,-199.5 201.4225,-221.0186 173.3046,-241.0788 192.5522,-260.5 228.5823,-296.855 265.4771,-246.0251 306.6006,-276.5 317.624,-284.669 309.2892,-295.4489 319.6006,-304.5 321.9602,-306.5712 324.6255,-308.3362 327.45,-309.8401"/>
<polygon fill="#000000" fill-opacity="0.466667" stroke="#000000" stroke-width="2" stroke-opacity="0.466667" points="326.2606,-313.1372 336.834,-313.8104 328.9882,-306.6905 326.2606,-313.1372"/>
</g>
<!-- src/db/news.js -->
<g id="node12" class="node">
<title>src/db/news.js</title>
<g id="a_node12"><a xlink:href="src/db/news.js" xlink:title="news.js">
<path fill="#ffffcc" stroke="#000000" d="M385.4547,-269C385.4547,-269 342.788,-269 342.788,-269 339.9547,-269 337.1213,-266.1667 337.1213,-263.3333 337.1213,-263.3333 337.1213,-257.6667 337.1213,-257.6667 337.1213,-254.8333 339.9547,-252 342.788,-252 342.788,-252 385.4547,-252 385.4547,-252 388.288,-252 391.1213,-254.8333 391.1213,-257.6667 391.1213,-257.6667 391.1213,-263.3333 391.1213,-263.3333 391.1213,-266.1667 388.288,-269 385.4547,-269"/>
<text text-anchor="middle" x="364.1213" y="-257.8" font-family="Helvetica,sans-Serif" font-size="9.00" fill="#000000">news.js</text>
</a>
</g>
</g>
<!-- src/api/admin.js&#45;&gt;src/db/news.js -->
<g id="edge2" class="edge">
<title>src/api/admin.js&#45;&gt;src/db/news.js</title>
<path fill="none" stroke="#000000" stroke-width="2" stroke-opacity="0.466667" d="M173.0602,-191.1148C177.3822,-193.196 181.4465,-195.9247 184.5522,-199.5 194.7327,-211.2194 181.1715,-222.9423 192.5522,-233.5 197.4537,-238.047 277.9352,-249.2558 326.9044,-255.7114"/>
<polygon fill="#000000" fill-opacity="0.466667" stroke="#000000" stroke-width="2" stroke-opacity="0.466667" points="326.4671,-259.1839 336.8371,-257.0127 327.3765,-252.2432 326.4671,-259.1839"/>
</g>
<!-- src/db/schedule.js -->
<g id="node13" class="node">
<title>src/db/schedule.js</title>
<g id="a_node13"><a xlink:href="src/db/schedule.js" xlink:title="schedule.js">
<path fill="#ffffcc" stroke="#000000" d="M388.981,-298C388.981,-298 339.2616,-298 339.2616,-298 336.4283,-298 333.595,-295.1667 333.595,-292.3333 333.595,-292.3333 333.595,-286.6667 333.595,-286.6667 333.595,-283.8333 336.4283,-281 339.2616,-281 339.2616,-281 388.981,-281 388.981,-281 391.8144,-281 394.6477,-283.8333 394.6477,-286.6667 394.6477,-286.6667 394.6477,-292.3333 394.6477,-292.3333 394.6477,-295.1667 391.8144,-298 388.981,-298"/>
<text text-anchor="middle" x="364.1213" y="-286.8" font-family="Helvetica,sans-Serif" font-size="9.00" fill="#000000">schedule.js</text>
</a>
</g>
</g>
<!-- src/api/admin.js&#45;&gt;src/db/schedule.js -->
<g id="edge3" class="edge">
<title>src/api/admin.js&#45;&gt;src/db/schedule.js</title>
<path fill="none" stroke="#000000" stroke-width="2" stroke-opacity="0.466667" d="M173.2473,-190.9574C177.5503,-193.0545 181.5597,-195.8295 184.5522,-199.5 197.9417,-215.9229 177.6706,-231.4161 192.5522,-246.5 228.75,-283.1896 258.4902,-249.0125 306.6006,-267.5 312.9333,-269.9335 313.4288,-272.6832 319.6006,-275.5 320.9827,-276.1308 322.4011,-276.7443 323.8432,-277.3396"/>
<polygon fill="#000000" fill-opacity="0.466667" stroke="#000000" stroke-width="2" stroke-opacity="0.466667" points="322.9763,-280.7528 333.5684,-280.9962 325.44,-274.2007 322.9763,-280.7528"/>
</g>
<!-- src/services/mail.js -->
<g id="node30" class="node">
<title>src/services/mail.js</title>
<g id="a_node30"><a xlink:href="src/services/mail.js" xlink:title="mail.js">
<path fill="#ffffcc" stroke="#000000" d="M385.4547,-94C385.4547,-94 342.788,-94 342.788,-94 339.9547,-94 337.1213,-91.1667 337.1213,-88.3333 337.1213,-88.3333 337.1213,-82.6667 337.1213,-82.6667 337.1213,-79.8333 339.9547,-77 342.788,-77 342.788,-77 385.4547,-77 385.4547,-77 388.288,-77 391.1213,-79.8333 391.1213,-82.6667 391.1213,-82.6667 391.1213,-88.3333 391.1213,-88.3333 391.1213,-91.1667 388.288,-94 385.4547,-94"/>
<text text-anchor="middle" x="364.1213" y="-82.8" font-family="Helvetica,sans-Serif" font-size="9.00" fill="#000000">mail.js</text>
</a>
</g>
</g>
<!-- src/api/admin.js&#45;&gt;src/services/mail.js -->
<g id="edge4" class="edge">
<title>src/api/admin.js&#45;&gt;src/services/mail.js</title>
<path fill="none" stroke="#000000" stroke-width="2" stroke-opacity="0.466667" d="M173.0983,-179.1631C177.5269,-177.1384 181.6192,-174.3472 184.5522,-170.5 197.9341,-152.9476 176.3288,-86.4653 192.5522,-71.5 229.8097,-37.1318 256.2732,-65.4635 306.6006,-71.5 313.1634,-72.2872 320.0591,-73.5624 326.7061,-75.0308"/>
<polygon fill="#000000" fill-opacity="0.466667" stroke="#000000" stroke-width="2" stroke-opacity="0.466667" points="326.3239,-78.5378 336.8633,-77.4549 327.9489,-71.729 326.3239,-78.5378"/>
</g>
<!-- src/services/news.js -->
<g id="node31" class="node">
<title>src/services/news.js</title>
<g id="a_node31"><a xlink:href="src/services/news.js" xlink:title="news.js">
<path fill="#ffffcc" stroke="#000000" d="M274.9097,-123C274.9097,-123 232.2431,-123 232.2431,-123 229.4097,-123 226.5764,-120.1667 226.5764,-117.3333 226.5764,-117.3333 226.5764,-111.6667 226.5764,-111.6667 226.5764,-108.8333 229.4097,-106 232.2431,-106 232.2431,-106 274.9097,-106 274.9097,-106 277.7431,-106 280.5764,-108.8333 280.5764,-111.6667 280.5764,-111.6667 280.5764,-117.3333 280.5764,-117.3333 280.5764,-120.1667 277.7431,-123 274.9097,-123"/>
<text text-anchor="middle" x="253.5764" y="-111.8" font-family="Helvetica,sans-Serif" font-size="9.00" fill="#000000">news.js</text>
</a>
</g>
</g>
<!-- src/api/admin.js&#45;&gt;src/services/news.js -->
<g id="edge5" class="edge">
<title>src/api/admin.js&#45;&gt;src/services/news.js</title>
<path fill="none" stroke="#000000" stroke-width="2" stroke-opacity="0.466667" d="M173.1499,-178.7093C177.4628,-176.7279 181.5008,-174.0688 184.5522,-170.5 196.6177,-156.3892 179.7452,-142.9414 192.5522,-129.5 198.8404,-122.9004 207.5246,-119.0109 216.3709,-116.7655"/>
<polygon fill="#000000" fill-opacity="0.466667" stroke="#000000" stroke-width="2" stroke-opacity="0.466667" points="217.1402,-120.1819 226.3084,-114.8721 215.83,-113.3056 217.1402,-120.1819"/>
</g>
<!-- src/services/schedule.js -->
<g id="node32" class="node">
<title>src/services/schedule.js</title>
<g id="a_node32"><a xlink:href="src/services/schedule.js" xlink:title="schedule.js">
<path fill="#ffffcc" stroke="#000000" d="M278.4361,-152C278.4361,-152 228.7167,-152 228.7167,-152 225.8834,-152 223.05,-149.1667 223.05,-146.3333 223.05,-146.3333 223.05,-140.6667 223.05,-140.6667 223.05,-137.8333 225.8834,-135 228.7167,-135 228.7167,-135 278.4361,-135 278.4361,-135 281.2695,-135 284.1028,-137.8333 284.1028,-140.6667 284.1028,-140.6667 284.1028,-146.3333 284.1028,-146.3333 284.1028,-149.1667 281.2695,-152 278.4361,-152"/>
<text text-anchor="middle" x="253.5764" y="-140.8" font-family="Helvetica,sans-Serif" font-size="9.00" fill="#000000">schedule.js</text>
</a>
</g>
</g>
<!-- src/api/admin.js&#45;&gt;src/services/schedule.js -->
<g id="edge6" class="edge">
<title>src/api/admin.js&#45;&gt;src/services/schedule.js</title>
<path fill="none" stroke="#000000" stroke-width="2" stroke-opacity="0.466667" d="M173.2935,-177.0829C177.296,-175.3061 181.1951,-173.1364 184.5522,-170.5 189.5934,-166.5411 187.3054,-162.182 192.5522,-158.5 198.6304,-154.2346 205.7902,-151.1769 213.0267,-148.9863"/>
<polygon fill="#000000" fill-opacity="0.466667" stroke="#000000" stroke-width="2" stroke-opacity="0.466667" points="214.0102,-152.3479 222.848,-146.5047 212.2953,-145.5612 214.0102,-152.3479"/>
</g>
<!-- src/api/news.js -->
<g id="node6" class="node">
<title>src/api/news.js</title>
<g id="a_node6"><a xlink:href="src/api/news.js" xlink:title="news.js">
<path fill="#ffffcc" stroke="#000000" d="M167.3724,-164C167.3724,-164 124.7057,-164 124.7057,-164 121.8724,-164 119.0391,-161.1667 119.0391,-158.3333 119.0391,-158.3333 119.0391,-152.6667 119.0391,-152.6667 119.0391,-149.8333 121.8724,-147 124.7057,-147 124.7057,-147 167.3724,-147 167.3724,-147 170.2057,-147 173.0391,-149.8333 173.0391,-152.6667 173.0391,-152.6667 173.0391,-158.3333 173.0391,-158.3333 173.0391,-161.1667 170.2057,-164 167.3724,-164"/>
<text text-anchor="middle" x="146.0391" y="-152.8" font-family="Helvetica,sans-Serif" font-size="9.00" fill="#000000">news.js</text>
</a>
</g>
</g>
<!-- src/api/news.js&#45;&gt;fs -->
<g id="edge9" class="edge">
<title>src/api/news.js&#45;&gt;fs</title>
<path fill="none" stroke="#c0c0c0" d="M173.1404,-150.195C177.5652,-148.1674 181.6452,-145.3669 184.5522,-141.5 200.4787,-120.3147 175.3524,-42.6652 192.5522,-22.5 198.5486,-15.4698 207.2915,-11.5649 216.2956,-9.4848"/>
<polygon fill="#c0c0c0" stroke="#c0c0c0" points="217.1281,-12.8956 226.4402,-7.8423 216.0093,-5.9856 217.1281,-12.8956"/>
</g>
<!-- src/api/news.js&#45;&gt;path -->
<g id="edge10" class="edge">
<title>src/api/news.js&#45;&gt;path</title>
<path fill="none" stroke="#c0c0c0" d="M173.0467,-150.1235C177.4801,-148.1024 181.5873,-145.3227 184.5522,-141.5 206.9942,-112.5656 170.072,-88.4046 192.5522,-59.5 198.4928,-51.8617 207.32,-46.8725 216.427,-43.6145"/>
<polygon fill="#c0c0c0" stroke="#c0c0c0" points="217.6874,-46.8922 226.2954,-40.7153 215.7143,-40.176 217.6874,-46.8922"/>
</g>
<!-- src/api/news.js&#45;&gt;src/db/news.js -->
<g id="edge7" class="edge">
<title>src/api/news.js&#45;&gt;src/db/news.js</title>
<path fill="none" stroke="#000000" stroke-width="2" stroke-opacity="0.466667" d="M173.1457,-162.0416C177.459,-164.1302 181.4982,-166.8804 184.5522,-170.5 195.9628,-184.0235 180.1251,-196.9043 192.5522,-209.5 228.9972,-246.4393 260.5875,-210.5096 306.6006,-234.5 313.5728,-238.1352 312.7967,-242.5586 319.6006,-246.5 322.0983,-247.9469 324.763,-249.2621 327.4998,-250.4545"/>
<polygon fill="#000000" fill-opacity="0.466667" stroke="#000000" stroke-width="2" stroke-opacity="0.466667" points="326.3541,-253.7632 336.9451,-254.047 328.8427,-247.2205 326.3541,-253.7632"/>
</g>
<!-- src/errors.js -->
<g id="node15" class="node">
<title>src/errors.js</title>
<g id="a_node15"><a xlink:href="src/errors.js" xlink:title="errors.js">
<path fill="#ffffcc" stroke="#000000" d="M274.9097,-316C274.9097,-316 232.2431,-316 232.2431,-316 229.4097,-316 226.5764,-313.1667 226.5764,-310.3333 226.5764,-310.3333 226.5764,-304.6667 226.5764,-304.6667 226.5764,-301.8333 229.4097,-299 232.2431,-299 232.2431,-299 274.9097,-299 274.9097,-299 277.7431,-299 280.5764,-301.8333 280.5764,-304.6667 280.5764,-304.6667 280.5764,-310.3333 280.5764,-310.3333 280.5764,-313.1667 277.7431,-316 274.9097,-316"/>
<text text-anchor="middle" x="253.5764" y="-304.8" font-family="Helvetica,sans-Serif" font-size="9.00" fill="#000000">errors.js</text>
</a>
</g>
</g>
<!-- src/api/news.js&#45;&gt;src/errors.js -->
<g id="edge8" class="edge">
<title>src/api/news.js&#45;&gt;src/errors.js</title>
<path fill="none" stroke="#000000" stroke-width="2" stroke-opacity="0.466667" d="M173.3766,-161.8542C177.6665,-163.9618 181.638,-166.767 184.5522,-170.5 201.9209,-192.748 181.3546,-207.5914 192.5522,-233.5 202.4742,-256.4571 221.7577,-277.9471 236.0036,-291.7901"/>
<polygon fill="#000000" fill-opacity="0.466667" stroke="#000000" stroke-width="2" stroke-opacity="0.466667" points="233.6241,-294.357 243.3082,-298.6546 238.4179,-289.2559 233.6241,-294.357"/>
</g>
<!-- src/api/schedule.js -->
<g id="node7" class="node">
<title>src/api/schedule.js</title>
<g id="a_node7"><a xlink:href="src/api/schedule.js" xlink:title="schedule.js">
<path fill="#ffffcc" stroke="#000000" d="M170.8988,-222C170.8988,-222 121.1794,-222 121.1794,-222 118.346,-222 115.5127,-219.1667 115.5127,-216.3333 115.5127,-216.3333 115.5127,-210.6667 115.5127,-210.6667 115.5127,-207.8333 118.346,-205 121.1794,-205 121.1794,-205 170.8988,-205 170.8988,-205 173.7321,-205 176.5654,-207.8333 176.5654,-210.6667 176.5654,-210.6667 176.5654,-216.3333 176.5654,-216.3333 176.5654,-219.1667 173.7321,-222 170.8988,-222"/>
<text text-anchor="middle" x="146.0391" y="-210.8" font-family="Helvetica,sans-Serif" font-size="9.00" fill="#000000">schedule.js</text>
</a>
</g>
</g>
<!-- src/api/schedule.js&#45;&gt;src/db/schedule.js -->
<g id="edge11" class="edge">
<title>src/api/schedule.js&#45;&gt;src/db/schedule.js</title>
<path fill="none" stroke="#000000" stroke-width="2" stroke-opacity="0.466667" d="M176.8819,-222.2055C179.7436,-223.9395 182.3792,-226.0155 184.5522,-228.5 194.4876,-239.8596 181.4829,-251.2422 192.5522,-261.5 211.0479,-278.6397 278.4997,-285.3338 323.115,-287.9162"/>
<polygon fill="#000000" fill-opacity="0.466667" stroke="#000000" stroke-width="2" stroke-opacity="0.466667" points="323.1962,-291.4253 333.3679,-288.4612 323.5679,-284.4352 323.1962,-291.4253"/>
</g>
<!-- src/api/schedule.js&#45;&gt;src/services/schedule.js -->
<g id="edge12" class="edge">
<title>src/api/schedule.js&#45;&gt;src/services/schedule.js</title>
<path fill="none" stroke="#000000" stroke-width="2" stroke-opacity="0.466667" d="M176.6029,-205.9322C179.592,-204.2098 182.333,-202.0955 184.5522,-199.5 196.6177,-185.3892 179.7452,-171.9414 192.5522,-158.5 198.0555,-152.7242 205.3939,-149.0241 213.0701,-146.6853"/>
<polygon fill="#000000" fill-opacity="0.466667" stroke="#000000" stroke-width="2" stroke-opacity="0.466667" points="213.9202,-150.081 222.8611,-144.3969 212.327,-143.2647 213.9202,-150.081"/>
</g>
<!-- src/api/user.js -->
<g id="node8" class="node">
<title>src/api/user.js</title>
<g id="a_node8"><a xlink:href="src/api/user.js" xlink:title="user.js">
<path fill="#ffffcc" stroke="#000000" d="M167.3724,-135C167.3724,-135 124.7057,-135 124.7057,-135 121.8724,-135 119.0391,-132.1667 119.0391,-129.3333 119.0391,-129.3333 119.0391,-123.6667 119.0391,-123.6667 119.0391,-120.8333 121.8724,-118 124.7057,-118 124.7057,-118 167.3724,-118 167.3724,-118 170.2057,-118 173.0391,-120.8333 173.0391,-123.6667 173.0391,-123.6667 173.0391,-129.3333 173.0391,-129.3333 173.0391,-132.1667 170.2057,-135 167.3724,-135"/>
<text text-anchor="middle" x="146.0391" y="-123.8" font-family="Helvetica,sans-Serif" font-size="9.00" fill="#000000">user.js</text>
</a>
</g>
</g>
<!-- src/services/user.js -->
<g id="node33" class="node">
<title>src/services/user.js</title>
<g id="a_node33"><a xlink:href="src/services/user.js" xlink:title="user.js">
<path fill="#ffffcc" stroke="#000000" d="M274.9097,-94C274.9097,-94 232.2431,-94 232.2431,-94 229.4097,-94 226.5764,-91.1667 226.5764,-88.3333 226.5764,-88.3333 226.5764,-82.6667 226.5764,-82.6667 226.5764,-79.8333 229.4097,-77 232.2431,-77 232.2431,-77 274.9097,-77 274.9097,-77 277.7431,-77 280.5764,-79.8333 280.5764,-82.6667 280.5764,-82.6667 280.5764,-88.3333 280.5764,-88.3333 280.5764,-91.1667 277.7431,-94 274.9097,-94"/>
<text text-anchor="middle" x="253.5764" y="-82.8" font-family="Helvetica,sans-Serif" font-size="9.00" fill="#000000">user.js</text>
</a>
</g>
</g>
<!-- src/api/user.js&#45;&gt;src/services/user.js -->
<g id="edge13" class="edge">
<title>src/api/user.js&#45;&gt;src/services/user.js</title>
<path fill="none" stroke="#000000" stroke-width="2" stroke-opacity="0.466667" d="M173.4367,-120.7968C177.4208,-119.1893 181.2766,-117.1319 184.5522,-114.5 190.1389,-110.0114 186.8313,-104.8161 192.5522,-100.5 199.5006,-95.2579 208.045,-91.8263 216.5157,-89.5858"/>
<polygon fill="#000000" fill-opacity="0.466667" stroke="#000000" stroke-width="2" stroke-opacity="0.466667" points="217.2907,-92.9992 226.3258,-87.4658 215.8121,-86.1572 217.2907,-92.9992"/>
</g>
<!-- src/api/website.js -->
<g id="node9" class="node">
<title>src/api/website.js</title>
<g id="a_node9"><a xlink:href="src/api/website.js" xlink:title="website.js">
<path fill="#ffffcc" stroke="#000000" d="M167.8901,-251C167.8901,-251 124.188,-251 124.188,-251 121.3547,-251 118.5213,-248.1667 118.5213,-245.3333 118.5213,-245.3333 118.5213,-239.6667 118.5213,-239.6667 118.5213,-236.8333 121.3547,-234 124.188,-234 124.188,-234 167.8901,-234 167.8901,-234 170.7234,-234 173.5568,-236.8333 173.5568,-239.6667 173.5568,-239.6667 173.5568,-245.3333 173.5568,-245.3333 173.5568,-248.1667 170.7234,-251 167.8901,-251"/>
<text text-anchor="middle" x="146.0391" y="-239.8" font-family="Helvetica,sans-Serif" font-size="9.00" fill="#000000">website.js</text>
</a>
</g>
</g>
<!-- src/api/website.js&#45;&gt;src/db/news.js -->
<g id="edge14" class="edge">
<title>src/api/website.js&#45;&gt;src/db/news.js</title>
<path fill="none" stroke="#000000" stroke-width="2" stroke-opacity="0.466667" d="M147.9384,-251.2411C152.2933,-268.865 164.8322,-308.3547 192.5522,-324.5 236.3526,-350.0112 266.4251,-355.4066 306.6006,-324.5 324.4588,-310.7618 304.2,-291.9462 319.6006,-275.5 321.8863,-273.0591 324.5818,-271.0153 327.4973,-269.304"/>
<polygon fill="#000000" fill-opacity="0.466667" stroke="#000000" stroke-width="2" stroke-opacity="0.466667" points="329.0659,-272.4355 336.7135,-265.103 326.1625,-266.066 329.0659,-272.4355"/>
</g>
<!-- src/services/github.js -->
<g id="node29" class="node">
<title>src/services/github.js</title>
<g id="a_node29"><a xlink:href="src/services/github.js" xlink:title="github.js">
<path fill="#ffffcc" stroke="#000000" d="M274.9097,-181C274.9097,-181 232.2431,-181 232.2431,-181 229.4097,-181 226.5764,-178.1667 226.5764,-175.3333 226.5764,-175.3333 226.5764,-169.6667 226.5764,-169.6667 226.5764,-166.8333 229.4097,-164 232.2431,-164 232.2431,-164 274.9097,-164 274.9097,-164 277.7431,-164 280.5764,-166.8333 280.5764,-169.6667 280.5764,-169.6667 280.5764,-175.3333 280.5764,-175.3333 280.5764,-178.1667 277.7431,-181 274.9097,-181"/>
<text text-anchor="middle" x="253.5764" y="-169.8" font-family="Helvetica,sans-Serif" font-size="9.00" fill="#000000">github.js</text>
</a>
</g>
</g>
<!-- src/api/website.js&#45;&gt;src/services/github.js -->
<g id="edge15" class="edge">
<title>src/api/website.js&#45;&gt;src/services/github.js</title>
<path fill="none" stroke="#000000" stroke-width="2" stroke-opacity="0.466667" d="M173.5669,-236.5491C177.7294,-234.5853 181.6084,-231.9736 184.5522,-228.5 197.1204,-213.6703 178.9863,-199.4227 192.5522,-185.5 198.8686,-179.0176 207.5625,-175.3819 216.4092,-173.4251"/>
<polygon fill="#000000" fill-opacity="0.466667" stroke="#000000" stroke-width="2" stroke-opacity="0.466667" points="217.0068,-176.8743 226.3437,-171.8671 215.9221,-169.9588 217.0068,-176.8743"/>
</g>
<!-- src/app.js -->
<g id="node10" class="node">
<title>src/app.js</title>
<g id="a_node10"><a xlink:href="src/app.js" xlink:title="app.js">
<path fill="#ffffcc" stroke="#000000" d="M79.0963,-149C79.0963,-149 36.4296,-149 36.4296,-149 33.5963,-149 30.7629,-146.1667 30.7629,-143.3333 30.7629,-143.3333 30.7629,-137.6667 30.7629,-137.6667 30.7629,-134.8333 33.5963,-132 36.4296,-132 36.4296,-132 79.0963,-132 79.0963,-132 81.9296,-132 84.7629,-134.8333 84.7629,-137.6667 84.7629,-137.6667 84.7629,-143.3333 84.7629,-143.3333 84.7629,-146.1667 81.9296,-149 79.0963,-149"/>
<text text-anchor="middle" x="57.7629" y="-137.8" font-family="Helvetica,sans-Serif" font-size="9.00" fill="#000000">app.js</text>
</a>
</g>
</g>
<!-- src/app.js&#45;&gt;fs -->
<g id="edge24" class="edge">
<title>src/app.js&#45;&gt;fs</title>
<path fill="none" stroke="#c0c0c0" d="M58.456,-131.7724C60.7615,-109.1967 70.2988,-48.7426 107.5259,-21.5 138.7177,1.326 184.2866,1.6485 216.2057,-1.8681"/>
<polygon fill="#c0c0c0" stroke="#c0c0c0" points="216.1033,-5.3835 226.4666,-3.1809 216.9917,1.5599 216.1033,-5.3835"/>
</g>
<!-- src/app.js&#45;&gt;ormconfig.js -->
<g id="edge16" class="edge">
<title>src/app.js&#45;&gt;ormconfig.js</title>
<path fill="none" stroke="#000000" stroke-width="2" stroke-opacity="0.466667" d="M60.3691,-131.8788C66.0873,-114.3479 81.3532,-74.2791 107.5259,-51.5 107.8912,-51.182 108.2641,-50.8704 108.6438,-50.565"/>
<polygon fill="#000000" fill-opacity="0.466667" stroke="#000000" stroke-width="2" stroke-opacity="0.466667" points="110.8207,-53.3296 117.4032,-45.0278 107.0803,-47.4127 110.8207,-53.3296"/>
</g>
<!-- src/app.js&#45;&gt;path -->
<g id="edge25" class="edge">
<title>src/app.js&#45;&gt;path</title>
<path fill="none" stroke="#c0c0c0" d="M62.3871,-131.9535C70.0359,-118.6068 86.5795,-92.8599 107.5259,-78.5 125.1969,-66.3855 179.4009,-53.1086 216.5623,-45.0404"/>
<polygon fill="#c0c0c0" stroke="#c0c0c0" points="217.4987,-48.4194 226.5472,-42.9081 216.0367,-41.5737 217.4987,-48.4194"/>
</g>
<!-- src/app.js&#45;&gt;src/api/admin.js -->
<g id="edge17" class="edge">
<title>src/app.js&#45;&gt;src/api/admin.js</title>
<path fill="none" stroke="#000000" stroke-width="2" stroke-opacity="0.466667" d="M70.4765,-149.1071C80.3109,-155.5296 94.4177,-164.2392 107.5259,-170.5 108.6814,-171.0519 109.8649,-171.5954 111.0666,-172.129"/>
<polygon fill="#000000" fill-opacity="0.466667" stroke="#000000" stroke-width="2" stroke-opacity="0.466667" points="109.8972,-175.4325 120.4769,-175.999 112.5596,-168.9585 109.8972,-175.4325"/>
</g>
<!-- src/app.js&#45;&gt;src/api/news.js -->
<g id="edge18" class="edge">
<title>src/app.js&#45;&gt;src/api/news.js</title>
<path fill="none" stroke="#000000" stroke-width="2" stroke-opacity="0.466667" d="M85.2102,-145.1639C92.7546,-146.4458 101.062,-147.8574 109.0487,-149.2145"/>
<polygon fill="#000000" fill-opacity="0.466667" stroke="#000000" stroke-width="2" stroke-opacity="0.466667" points="108.467,-152.6658 118.912,-150.8905 109.6397,-145.7647 108.467,-152.6658"/>
</g>
<!-- src/app.js&#45;&gt;src/api/schedule.js -->
<g id="edge19" class="edge">
<title>src/app.js&#45;&gt;src/api/schedule.js</title>
<path fill="none" stroke="#000000" stroke-width="2" stroke-opacity="0.466667" d="M63.0869,-149.3621C71.1805,-162.1343 87.7476,-185.6945 107.5259,-199.5 107.7082,-199.6273 107.8918,-199.7535 108.0766,-199.8787"/>
<polygon fill="#000000" fill-opacity="0.466667" stroke="#000000" stroke-width="2" stroke-opacity="0.466667" points="106.5841,-203.0533 117.0257,-204.8487 109.9827,-196.9337 106.5841,-203.0533"/>
</g>
<!-- src/app.js&#45;&gt;src/api/user.js -->
<g id="edge20" class="edge">
<title>src/app.js&#45;&gt;src/api/user.js</title>
<path fill="none" stroke="#000000" stroke-width="2" stroke-opacity="0.466667" d="M85.2102,-136.1471C92.6708,-134.9639 100.8775,-133.6623 108.7824,-132.4087"/>
<polygon fill="#000000" fill-opacity="0.466667" stroke="#000000" stroke-width="2" stroke-opacity="0.466667" points="109.5837,-135.8254 118.912,-130.8022 108.4872,-128.9118 109.5837,-135.8254"/>
</g>
<!-- src/app.js&#45;&gt;src/api/website.js -->
<g id="edge21" class="edge">
<title>src/app.js&#45;&gt;src/api/website.js</title>
<path fill="none" stroke="#000000" stroke-width="2" stroke-opacity="0.466667" d="M64.4738,-149.1836C73.4389,-161.1084 89.37,-183.4734 99.5259,-204.5 104.416,-214.6245 99.6831,-220.4433 107.5259,-228.5 108.2951,-229.2902 109.1123,-230.036 109.9689,-230.7399"/>
<polygon fill="#000000" fill-opacity="0.466667" stroke="#000000" stroke-width="2" stroke-opacity="0.466667" points="108.1614,-233.7372 118.5094,-236.0111 111.838,-227.7804 108.1614,-233.7372"/>
</g>
<!-- src/app.js&#45;&gt;src/errors.js -->
<g id="edge22" class="edge">
<title>src/app.js&#45;&gt;src/errors.js</title>
<path fill="none" stroke="#000000" stroke-width="2" stroke-opacity="0.466667" d="M65.4881,-149.2989C75.2696,-161.002 91.779,-182.7532 99.5259,-204.5 105.1505,-220.2893 96.1768,-267.1657 107.5259,-279.5 134.6575,-308.9869 182.5728,-313.0117 216.0987,-311.6098"/>
<polygon fill="#000000" fill-opacity="0.466667" stroke="#000000" stroke-width="2" stroke-opacity="0.466667" points="216.6613,-315.0825 226.4336,-310.9894 216.2418,-308.095 216.6613,-315.0825"/>
</g>
<!-- src/jobs.js -->
<g id="node16" class="node">
<title>src/jobs.js</title>
<g id="a_node16"><a xlink:href="src/jobs.js" xlink:title="jobs.js">
<path fill="#ffffcc" stroke="#000000" d="M167.3724,-101C167.3724,-101 124.7057,-101 124.7057,-101 121.8724,-101 119.0391,-98.1667 119.0391,-95.3333 119.0391,-95.3333 119.0391,-89.6667 119.0391,-89.6667 119.0391,-86.8333 121.8724,-84 124.7057,-84 124.7057,-84 167.3724,-84 167.3724,-84 170.2057,-84 173.0391,-86.8333 173.0391,-89.6667 173.0391,-89.6667 173.0391,-95.3333 173.0391,-95.3333 173.0391,-98.1667 170.2057,-101 167.3724,-101"/>
<text text-anchor="middle" x="146.0391" y="-89.8" font-family="Helvetica,sans-Serif" font-size="9.00" fill="#000000">jobs.js</text>
</a>
</g>
</g>
<!-- src/app.js&#45;&gt;src/jobs.js -->
<g id="edge23" class="edge">
<title>src/app.js&#45;&gt;src/jobs.js</title>
<path fill="none" stroke="#000000" stroke-width="2" stroke-opacity="0.466667" d="M68.7223,-131.8197C78.4851,-124.385 93.3752,-113.7599 107.5259,-106.5 108.3567,-106.0738 109.2035,-105.6544 110.0626,-105.2424"/>
<polygon fill="#000000" fill-opacity="0.466667" stroke="#000000" stroke-width="2" stroke-opacity="0.466667" points="111.776,-108.3145 119.5599,-101.1268 108.9927,-101.8916 111.776,-108.3145"/>
</g>
<!-- src/db/user.js -->
<g id="node14" class="node">
<title>src/db/user.js</title>
<g id="a_node14"><a xlink:href="src/db/user.js" xlink:title="user.js">
<path fill="#ffffcc" stroke="#000000" d="M385.4547,-240C385.4547,-240 342.788,-240 342.788,-240 339.9547,-240 337.1213,-237.1667 337.1213,-234.3333 337.1213,-234.3333 337.1213,-228.6667 337.1213,-228.6667 337.1213,-225.8333 339.9547,-223 342.788,-223 342.788,-223 385.4547,-223 385.4547,-223 388.288,-223 391.1213,-225.8333 391.1213,-228.6667 391.1213,-228.6667 391.1213,-234.3333 391.1213,-234.3333 391.1213,-237.1667 388.288,-240 385.4547,-240"/>
<text text-anchor="middle" x="364.1213" y="-228.8" font-family="Helvetica,sans-Serif" font-size="9.00" fill="#000000">user.js</text>
</a>
</g>
</g>
<!-- src/jobs.js&#45;&gt;fs -->
<g id="edge29" class="edge">
<title>src/jobs.js&#45;&gt;fs</title>
<path fill="none" stroke="#c0c0c0" d="M156.6909,-83.8028C165.3902,-76.1538 177.3799,-64.2729 184.5522,-51.5 191.0986,-39.8419 182.8939,-31.7457 192.5522,-22.5 198.9859,-16.3412 207.5527,-12.6907 216.2281,-10.5737"/>
<polygon fill="#c0c0c0" stroke="#c0c0c0" points="217.1283,-13.9674 226.3407,-8.7346 215.8758,-7.0804 217.1283,-13.9674"/>
</g>
<!-- src/jobs.js&#45;&gt;path -->
<g id="edge30" class="edge">
<title>src/jobs.js&#45;&gt;path</title>
<path fill="none" stroke="#c0c0c0" d="M170.7503,-83.8419C175.7001,-81.3485 180.5898,-78.2587 184.5522,-74.5 190.0339,-69.3002 186.8393,-64.4446 192.5522,-59.5 199.4817,-53.5026 208.1718,-49.095 216.8031,-45.8726"/>
<polygon fill="#c0c0c0" stroke="#c0c0c0" points="218.0149,-49.1587 226.4261,-42.7164 215.8333,-42.5073 218.0149,-49.1587"/>
</g>
<!-- src/jobs.js&#45;&gt;src/db/schedule.js -->
<g id="edge26" class="edge">
<title>src/jobs.js&#45;&gt;src/db/schedule.js</title>
<path fill="none" stroke="#000000" stroke-width="2" stroke-opacity="0.466667" d="M173.108,-97.8295C177.5357,-99.8549 181.6252,-102.6482 184.5522,-106.5 198.4428,-124.7788 178.1292,-191.6384 192.5522,-209.5 225.7816,-250.6515 267.4456,-207.9398 306.6006,-243.5 317.9645,-253.8206 308.3141,-265.0948 319.6006,-275.5 321.075,-276.8593 322.6804,-278.0866 324.3778,-279.1947"/>
<polygon fill="#000000" fill-opacity="0.466667" stroke="#000000" stroke-width="2" stroke-opacity="0.466667" points="322.9486,-282.3943 333.4496,-283.8018 326.1182,-276.1531 322.9486,-282.3943"/>
</g>
<!-- src/jobs.js&#45;&gt;src/services/news.js -->
<g id="edge27" class="edge">
<title>src/jobs.js&#45;&gt;src/services/news.js</title>
<path fill="none" stroke="#000000" stroke-width="2" stroke-opacity="0.466667" d="M173.1753,-98.0515C186.2932,-100.7352 202.2405,-103.9977 216.4628,-106.9073"/>
<polygon fill="#000000" fill-opacity="0.466667" stroke="#000000" stroke-width="2" stroke-opacity="0.466667" points="215.9503,-110.3749 226.4489,-108.9502 217.3533,-103.5169 215.9503,-110.3749"/>
</g>
<!-- src/jobs.js&#45;&gt;src/services/schedule.js -->
<g id="edge28" class="edge">
<title>src/jobs.js&#45;&gt;src/services/schedule.js</title>
<path fill="none" stroke="#000000" stroke-width="2" stroke-opacity="0.466667" d="M173.1394,-98.8417C177.3495,-100.7621 181.3551,-103.2581 184.5522,-106.5 192.1517,-114.2061 184.493,-122.2762 192.5522,-129.5 198.2927,-134.6454 205.5362,-138.0144 213.0093,-140.1963"/>
<polygon fill="#000000" fill-opacity="0.466667" stroke="#000000" stroke-width="2" stroke-opacity="0.466667" points="212.332,-143.6315 222.8585,-142.4304 213.8805,-136.8049 212.332,-143.6315"/>
</g>
<!-- src/models/Article.js -->
<g id="node17" class="node">
<title>src/models/Article.js</title>
<g id="a_node17"><a xlink:href="src/models/Article.js" xlink:title="Article.js">
<path fill="#ffffcc" stroke="#000000" d="M79.0963,-407C79.0963,-407 36.4296,-407 36.4296,-407 33.5963,-407 30.7629,-404.1667 30.7629,-401.3333 30.7629,-401.3333 30.7629,-395.6667 30.7629,-395.6667 30.7629,-392.8333 33.5963,-390 36.4296,-390 36.4296,-390 79.0963,-390 79.0963,-390 81.9296,-390 84.7629,-392.8333 84.7629,-395.6667 84.7629,-395.6667 84.7629,-401.3333 84.7629,-401.3333 84.7629,-404.1667 81.9296,-407 79.0963,-407"/>
<text text-anchor="middle" x="57.7629" y="-395.8" font-family="Helvetica,sans-Serif" font-size="9.00" fill="#000000">Article.js</text>
</a>
</g>
</g>
<!-- src/models/Class.js -->
<g id="node18" class="node">
<title>src/models/Class.js</title>
<g id="a_node18"><a xlink:href="src/models/Class.js" xlink:title="Class.js">
<path fill="#ffffcc" stroke="#000000" d="M79.0963,-378C79.0963,-378 36.4296,-378 36.4296,-378 33.5963,-378 30.7629,-375.1667 30.7629,-372.3333 30.7629,-372.3333 30.7629,-366.6667 30.7629,-366.6667 30.7629,-363.8333 33.5963,-361 36.4296,-361 36.4296,-361 79.0963,-361 79.0963,-361 81.9296,-361 84.7629,-363.8333 84.7629,-366.6667 84.7629,-366.6667 84.7629,-372.3333 84.7629,-372.3333 84.7629,-375.1667 81.9296,-378 79.0963,-378"/>
<text text-anchor="middle" x="57.7629" y="-366.8" font-family="Helvetica,sans-Serif" font-size="9.00" fill="#000000">Class.js</text>
</a>
</g>
</g>
<!-- src/models/Lesson.js -->
<g id="node19" class="node">
<title>src/models/Lesson.js</title>
<g id="a_node19"><a xlink:href="src/models/Lesson.js" xlink:title="Lesson.js">
<path fill="#ffffcc" stroke="#000000" d="M79.1178,-349C79.1178,-349 36.4081,-349 36.4081,-349 33.5748,-349 30.7415,-346.1667 30.7415,-343.3333 30.7415,-343.3333 30.7415,-337.6667 30.7415,-337.6667 30.7415,-334.8333 33.5748,-332 36.4081,-332 36.4081,-332 79.1178,-332 79.1178,-332 81.9511,-332 84.7844,-334.8333 84.7844,-337.6667 84.7844,-337.6667 84.7844,-343.3333 84.7844,-343.3333 84.7844,-346.1667 81.9511,-349 79.1178,-349"/>
<text text-anchor="middle" x="57.7629" y="-337.8" font-family="Helvetica,sans-Serif" font-size="9.00" fill="#000000">Lesson.js</text>
</a>
</g>
</g>
<!-- src/models/Review.js -->
<g id="node20" class="node">
<title>src/models/Review.js</title>
<g id="a_node20"><a xlink:href="src/models/Review.js" xlink:title="Review.js">
<path fill="#ffffcc" stroke="#000000" d="M79.1134,-320C79.1134,-320 36.4125,-320 36.4125,-320 33.5792,-320 30.7458,-317.1667 30.7458,-314.3333 30.7458,-314.3333 30.7458,-308.6667 30.7458,-308.6667 30.7458,-305.8333 33.5792,-303 36.4125,-303 36.4125,-303 79.1134,-303 79.1134,-303 81.9467,-303 84.78,-305.8333 84.78,-308.6667 84.78,-308.6667 84.78,-314.3333 84.78,-314.3333 84.78,-317.1667 81.9467,-320 79.1134,-320"/>
<text text-anchor="middle" x="57.7629" y="-308.8" font-family="Helvetica,sans-Serif" font-size="9.00" fill="#000000">Review.js</text>
</a>
</g>
</g>
<!-- src/models/School.js -->
<g id="node21" class="node">
<title>src/models/School.js</title>
<g id="a_node21"><a xlink:href="src/models/School.js" xlink:title="School.js">
<path fill="#ffffcc" stroke="#000000" d="M79.0963,-291C79.0963,-291 36.4296,-291 36.4296,-291 33.5963,-291 30.7629,-288.1667 30.7629,-285.3333 30.7629,-285.3333 30.7629,-279.6667 30.7629,-279.6667 30.7629,-276.8333 33.5963,-274 36.4296,-274 36.4296,-274 79.0963,-274 79.0963,-274 81.9296,-274 84.7629,-276.8333 84.7629,-279.6667 84.7629,-279.6667 84.7629,-285.3333 84.7629,-285.3333 84.7629,-288.1667 81.9296,-291 79.0963,-291"/>
<text text-anchor="middle" x="57.7629" y="-279.8" font-family="Helvetica,sans-Serif" font-size="9.00" fill="#000000">School.js</text>
</a>
</g>
</g>
<!-- src/models/Subscriber.js -->
<g id="node22" class="node">
<title>src/models/Subscriber.js</title>
<g id="a_node22"><a xlink:href="src/models/Subscriber.js" xlink:title="Subscriber.js">
<path fill="#ffffcc" stroke="#000000" d="M85.6238,-262C85.6238,-262 29.9021,-262 29.9021,-262 27.0687,-262 24.2354,-259.1667 24.2354,-256.3333 24.2354,-256.3333 24.2354,-250.6667 24.2354,-250.6667 24.2354,-247.8333 27.0687,-245 29.9021,-245 29.9021,-245 85.6238,-245 85.6238,-245 88.4571,-245 91.2905,-247.8333 91.2905,-250.6667 91.2905,-250.6667 91.2905,-256.3333 91.2905,-256.3333 91.2905,-259.1667 88.4571,-262 85.6238,-262"/>
<text text-anchor="middle" x="57.7629" y="-250.8" font-family="Helvetica,sans-Serif" font-size="9.00" fill="#000000">Subscriber.js</text>
</a>
</g>
</g>
<!-- src/models/Timetable.js -->
<g id="node23" class="node">
<title>src/models/Timetable.js</title>
<g id="a_node23"><a xlink:href="src/models/Timetable.js" xlink:title="Timetable.js">
<path fill="#ffffcc" stroke="#000000" d="M84.2826,-233C84.2826,-233 31.2433,-233 31.2433,-233 28.41,-233 25.5766,-230.1667 25.5766,-227.3333 25.5766,-227.3333 25.5766,-221.6667 25.5766,-221.6667 25.5766,-218.8333 28.41,-216 31.2433,-216 31.2433,-216 84.2826,-216 84.2826,-216 87.1159,-216 89.9492,-218.8333 89.9492,-221.6667 89.9492,-221.6667 89.9492,-227.3333 89.9492,-227.3333 89.9492,-230.1667 87.1159,-233 84.2826,-233"/>
<text text-anchor="middle" x="57.7629" y="-221.8" font-family="Helvetica,sans-Serif" font-size="9.00" fill="#000000">Timetable.js</text>
</a>
</g>
</g>
<!-- src/parsers/news&#45;parser.js -->
<g id="node24" class="node">
<title>src/parsers/news&#45;parser.js</title>
<g id="a_node24"><a xlink:href="src/parsers/news-parser.js" xlink:title="news&#45;parser.js">
<path fill="#ffffcc" stroke="#000000" d="M395.4801,-400C395.4801,-400 332.7626,-400 332.7626,-400 329.9293,-400 327.0959,-397.1667 327.0959,-394.3333 327.0959,-394.3333 327.0959,-388.6667 327.0959,-388.6667 327.0959,-385.8333 329.9293,-383 332.7626,-383 332.7626,-383 395.4801,-383 395.4801,-383 398.3134,-383 401.1467,-385.8333 401.1467,-388.6667 401.1467,-388.6667 401.1467,-394.3333 401.1467,-394.3333 401.1467,-397.1667 398.3134,-400 395.4801,-400"/>
<text text-anchor="middle" x="364.1213" y="-388.8" font-family="Helvetica,sans-Serif" font-size="9.00" fill="#000000">news&#45;parser.js</text>
</a>
</g>
</g>
<!-- src/parsers/news&#45;parser.test.js -->
<g id="node25" class="node">
<title>src/parsers/news&#45;parser.test.js</title>
<g id="a_node25"><a xlink:href="src/parsers/news-parser.test.js" xlink:title="news&#45;parser.test.js">
<path fill="#ffffcc" stroke="#000000" d="M293.442,-415C293.442,-415 213.7109,-415 213.7109,-415 210.8775,-415 208.0442,-412.1667 208.0442,-409.3333 208.0442,-409.3333 208.0442,-403.6667 208.0442,-403.6667 208.0442,-400.8333 210.8775,-398 213.7109,-398 213.7109,-398 293.442,-398 293.442,-398 296.2753,-398 299.1086,-400.8333 299.1086,-403.6667 299.1086,-403.6667 299.1086,-409.3333 299.1086,-409.3333 299.1086,-412.1667 296.2753,-415 293.442,-415"/>
<text text-anchor="middle" x="253.5764" y="-403.8" font-family="Helvetica,sans-Serif" font-size="9.00" fill="#000000">news&#45;parser.test.js</text>
</a>
</g>
</g>
<!-- src/parsers/news&#45;parser.test.js&#45;&gt;src/parsers/news&#45;parser.js -->
<g id="edge31" class="edge">
<title>src/parsers/news&#45;parser.test.js&#45;&gt;src/parsers/news&#45;parser.js</title>
<path fill="none" stroke="#000000" stroke-width="2" stroke-opacity="0.466667" d="M299.1775,-400.3123C304.9762,-399.5255 310.9216,-398.7188 316.7474,-397.9282"/>
<polygon fill="#000000" fill-opacity="0.466667" stroke="#000000" stroke-width="2" stroke-opacity="0.466667" points="317.6087,-401.3435 327.0472,-396.5306 316.6674,-394.4071 317.6087,-401.3435"/>
</g>
<!-- src/parsers/schedule&#45;parser.js -->
<g id="node26" class="node">
<title>src/parsers/schedule&#45;parser.js</title>
<g id="a_node26"><a xlink:href="src/parsers/schedule-parser.js" xlink:title="schedule&#45;parser.js">
<path fill="#ffffcc" stroke="#000000" d="M402.9962,-436C402.9962,-436 325.2465,-436 325.2465,-436 322.4132,-436 319.5798,-433.1667 319.5798,-430.3333 319.5798,-430.3333 319.5798,-424.6667 319.5798,-424.6667 319.5798,-421.8333 322.4132,-419 325.2465,-419 325.2465,-419 402.9962,-419 402.9962,-419 405.8295,-419 408.6629,-421.8333 408.6629,-424.6667 408.6629,-424.6667 408.6629,-430.3333 408.6629,-430.3333 408.6629,-433.1667 405.8295,-436 402.9962,-436"/>
<text text-anchor="middle" x="364.1213" y="-424.8" font-family="Helvetica,sans-Serif" font-size="9.00" fill="#000000">schedule&#45;parser.js</text>
</a>
</g>
</g>
<!-- src/parsers/schedule&#45;parser.test.js -->
<g id="node27" class="node">
<title>src/parsers/schedule&#45;parser.test.js</title>
<g id="a_node27"><a xlink:href="src/parsers/schedule-parser.test.js" xlink:title="schedule&#45;parser.test.js">
<path fill="#ffffcc" stroke="#000000" d="M300.9581,-444C300.9581,-444 206.1947,-444 206.1947,-444 203.3614,-444 200.5281,-441.1667 200.5281,-438.3333 200.5281,-438.3333 200.5281,-432.6667 200.5281,-432.6667 200.5281,-429.8333 203.3614,-427 206.1947,-427 206.1947,-427 300.9581,-427 300.9581,-427 303.7914,-427 306.6248,-429.8333 306.6248,-432.6667 306.6248,-432.6667 306.6248,-438.3333 306.6248,-438.3333 306.6248,-441.1667 303.7914,-444 300.9581,-444"/>
<text text-anchor="middle" x="253.5764" y="-432.8" font-family="Helvetica,sans-Serif" font-size="9.00" fill="#000000">schedule&#45;parser.test.js</text>
</a>
</g>
</g>
<!-- src/parsers/schedule&#45;parser.test.js&#45;&gt;src/parsers/schedule&#45;parser.js -->
<g id="edge32" class="edge">
<title>src/parsers/schedule&#45;parser.test.js&#45;&gt;src/parsers/schedule&#45;parser.js</title>
<path fill="none" stroke="#000000" stroke-width="2" stroke-opacity="0.466667" d="M306.9061,-431.6406C307.6928,-431.5837 308.4801,-431.5267 309.2673,-431.4697"/>
<polygon fill="#000000" fill-opacity="0.466667" stroke="#000000" stroke-width="2" stroke-opacity="0.466667" points="309.721,-434.9461 319.4423,-430.7334 309.2157,-427.9644 309.721,-434.9461"/>
</g>
<!-- src/parsers/table&#45;serializer.js -->
<g id="node28" class="node">
<title>src/parsers/table&#45;serializer.js</title>
<g id="a_node28"><a xlink:href="src/parsers/table-serializer.js" xlink:title="table&#45;serializer.js">
<path fill="#ffffcc" stroke="#000000" d="M289.4395,-386C289.4395,-386 217.7133,-386 217.7133,-386 214.88,-386 212.0466,-383.1667 212.0466,-380.3333 212.0466,-380.3333 212.0466,-374.6667 212.0466,-374.6667 212.0466,-371.8333 214.88,-369 217.7133,-369 217.7133,-369 289.4395,-369 289.4395,-369 292.2729,-369 295.1062,-371.8333 295.1062,-374.6667 295.1062,-374.6667 295.1062,-380.3333 295.1062,-380.3333 295.1062,-383.1667 292.2729,-386 289.4395,-386"/>
<text text-anchor="middle" x="253.5764" y="-374.8" font-family="Helvetica,sans-Serif" font-size="9.00" fill="#000000">table&#45;serializer.js</text>
</a>
</g>
</g>
<!-- src/parsers/table&#45;serializer.js&#45;&gt;crypto -->
<g id="edge34" class="edge">
<title>src/parsers/table&#45;serializer.js&#45;&gt;crypto</title>
<path fill="none" stroke="#c0c0c0" d="M295.1391,-384.0709C299.455,-386.1815 303.4174,-388.9295 306.6006,-392.5 330.5715,-419.3882 302.1336,-440.9963 319.6006,-472.5 324.8518,-481.9711 333.3248,-490.2538 341.4769,-496.7215"/>
<polygon fill="#c0c0c0" stroke="#c0c0c0" points="339.5789,-499.6703 349.7076,-502.7781 343.7277,-494.0322 339.5789,-499.6703"/>
</g>
<!-- src/parsers/table&#45;serializer.js&#45;&gt;src/db/schedule.js -->
<g id="edge33" class="edge">
<title>src/parsers/table&#45;serializer.js&#45;&gt;src/db/schedule.js</title>
<path fill="none" stroke="#000000" stroke-width="2" stroke-opacity="0.466667" d="M267.2727,-368.783C278.9694,-360.7745 295.5999,-347.9773 306.6006,-333.5 315.1462,-322.2537 309.1431,-313.9946 319.6006,-304.5 321.0951,-303.1431 322.7168,-301.9083 324.4271,-300.7847"/>
<polygon fill="#000000" fill-opacity="0.466667" stroke="#000000" stroke-width="2" stroke-opacity="0.466667" points="326.2833,-303.7644 333.5384,-296.0434 323.0519,-297.5549 326.2833,-303.7644"/>
</g>
<!-- src/services/news.js&#45;&gt;src/db/news.js -->
<g id="edge35" class="edge">
<title>src/services/news.js&#45;&gt;src/db/news.js</title>
<path fill="none" stroke="#000000" stroke-width="2" stroke-opacity="0.466667" d="M280.6555,-116.056C290.212,-118.0098 300.169,-121.9087 306.6006,-129.5 340.4213,-169.4192 286.3619,-206.0949 319.6006,-246.5 321.7625,-249.1281 324.4134,-251.2706 327.3346,-253.0162"/>
<polygon fill="#000000" fill-opacity="0.466667" stroke="#000000" stroke-width="2" stroke-opacity="0.466667" points="326.1292,-256.31 336.6906,-257.1509 328.9587,-249.9074 326.1292,-256.31"/>
</g>
<!-- src/services/news.js&#45;&gt;src/parsers/news&#45;parser.js -->
<g id="edge36" class="edge">
<title>src/services/news.js&#45;&gt;src/parsers/news&#45;parser.js</title>
<path fill="none" stroke="#000000" stroke-width="2" stroke-opacity="0.466667" d="M280.5951,-115.8227C290.2634,-117.7346 300.3133,-121.6657 306.6006,-129.5 338.0866,-168.7332 296.6324,-310.7442 319.6006,-355.5 323.9716,-364.0174 331.3553,-371.2215 338.866,-376.8948"/>
<polygon fill="#000000" fill-opacity="0.466667" stroke="#000000" stroke-width="2" stroke-opacity="0.466667" points="337.3367,-380.0888 347.5685,-382.8387 341.2848,-374.3084 337.3367,-380.0888"/>
</g>
<!-- src/services/schedule.js&#45;&gt;src/db/schedule.js -->
<g id="edge37" class="edge">
<title>src/services/schedule.js&#45;&gt;src/db/schedule.js</title>
<path fill="none" stroke="#000000" stroke-width="2" stroke-opacity="0.466667" d="M284.2503,-145.8832C292.6462,-148.0422 300.973,-151.8576 306.6006,-158.5 340.4213,-198.4192 286.3619,-235.0949 319.6006,-275.5 321.0644,-277.2794 322.7524,-278.8362 324.5966,-280.198"/>
<polygon fill="#000000" fill-opacity="0.466667" stroke="#000000" stroke-width="2" stroke-opacity="0.466667" points="323.0126,-283.3204 333.4727,-285.0045 326.3458,-277.1649 323.0126,-283.3204"/>
</g>
<!-- src/services/schedule.js&#45;&gt;src/parsers/schedule&#45;parser.js -->
<g id="edge38" class="edge">
<title>src/services/schedule.js&#45;&gt;src/parsers/schedule&#45;parser.js</title>
<path fill="none" stroke="#000000" stroke-width="2" stroke-opacity="0.466667" d="M284.2174,-145.6121C292.7167,-147.7499 301.1092,-151.6217 306.6006,-158.5 341.0324,-201.6281 288.8413,-360.6803 319.6006,-406.5 321.2975,-409.0278 323.3843,-411.2587 325.7196,-413.2264"/>
<polygon fill="#000000" fill-opacity="0.466667" stroke="#000000" stroke-width="2" stroke-opacity="0.466667" points="324.135,-416.3736 334.4114,-418.9515 327.9855,-410.5278 324.135,-416.3736"/>
</g>
<!-- src/services/schedule.js&#45;&gt;src/parsers/table&#45;serializer.js -->
<g id="edge39" class="edge">
<title>src/services/schedule.js&#45;&gt;src/parsers/table&#45;serializer.js</title>
<path fill="none" stroke="#000000" stroke-width="2" stroke-opacity="0.466667" d="M222.9408,-143.2625C208.2041,-145.054 192.815,-150.421 188.5522,-164.5 183.3039,-181.834 183.3039,-310.166 188.5522,-327.5 193.5284,-343.9352 208.2441,-355.9811 222.4197,-364.1261"/>
<polygon fill="#000000" fill-opacity="0.466667" stroke="#000000" stroke-width="2" stroke-opacity="0.466667" points="221.0689,-367.3699 231.5494,-368.9221 224.3243,-361.173 221.0689,-367.3699"/>
</g>
<!-- src/services/user.js&#45;&gt;src/db/user.js -->
<g id="edge40" class="edge">
<title>src/services/user.js&#45;&gt;src/db/user.js</title>
<path fill="none" stroke="#000000" stroke-width="2" stroke-opacity="0.466667" d="M280.6233,-87.0834C290.1758,-89.0406 300.1385,-92.9346 306.6006,-100.5 338.2875,-137.597 291.4412,-169.6591 319.6006,-209.5 321.9409,-212.8112 324.924,-215.6483 328.2347,-218.0738"/>
<polygon fill="#000000" fill-opacity="0.466667" stroke="#000000" stroke-width="2" stroke-opacity="0.466667" points="326.5804,-221.1625 336.9594,-223.2904 330.1727,-215.1545 326.5804,-221.1625"/>
</g>
<!-- src/services/user.js&#45;&gt;src/services/mail.js -->
<g id="edge41" class="edge">
<title>src/services/user.js&#45;&gt;src/services/mail.js</title>
<path fill="none" stroke="#000000" stroke-width="2" stroke-opacity="0.466667" d="M280.6187,-85.5C294.5372,-85.5 311.7202,-85.5 326.8736,-85.5"/>
<polygon fill="#000000" fill-opacity="0.466667" stroke="#000000" stroke-width="2" stroke-opacity="0.466667" points="326.9751,-89.0001 336.9751,-85.5 326.975,-82.0001 326.9751,-89.0001"/>
</g>
</g>
</svg>
